<svg width="199" height="72" viewBox="0 0 199 72" fill="none" xmlns="http://www.w3.org/2000/svg">
<g filter="url(#filter0_i_4440_2)">
<path d="M39.2312 70.8698C35.7312 70.8483 34.0083 66.4376 34.0623 57.6378C34.0973 51.9379 35.2363 45.5947 37.4793 38.6084C37.1799 38.5065 36.4302 38.4519 35.2302 38.4446C29.3304 38.4083 21.6728 39.6113 12.2576 42.0535L5.49671 43.812L4.14489 44.1037C3.6449 44.1007 2.94891 43.4464 2.05691 42.1409C1.26552 40.736 0.872593 39.5836 0.878121 38.6836C0.889177 36.8836 2.30451 34.3923 5.12411 31.2095C7.94371 28.0268 12.2667 24.3033 18.093 20.039L33.1618 8.8813L37.0995 2.75537C37.1038 2.05538 38.7059 1.71522 41.9058 1.73487C45.0058 1.75391 46.5484 2.96341 46.5336 5.36337C46.5312 5.76336 45.3232 7.05596 42.9098 9.24118C40.5969 11.327 36.9792 14.2048 32.0565 17.8747L28.44 20.5525C22.591 28.5167 19.6689 32.0989 19.6738 31.2989C19.6763 30.8989 20.9404 28.6066 23.4661 24.422C20.5527 26.6042 17.8398 28.6876 15.3276 30.6722C12.916 32.5574 10.705 34.3439 8.69456 36.0315C13.7012 34.9623 18.5064 34.1418 23.11 33.57C27.8135 32.9989 32.3153 32.7266 36.6152 32.753L39.9152 32.7732L46.4544 18.2631C49.598 11.1823 51.1759 6.64191 51.1882 4.64195C51.1918 4.04196 50.7452 3.4892 49.8483 2.98368C49.052 2.37878 48.6542 2.02633 48.6548 1.92633C48.9597 1.12819 50.0121 0.734644 51.8121 0.7457C52.6121 0.750614 53.5112 0.90614 54.5093 1.21228C55.608 1.41903 56.6056 1.82516 57.5019 2.43068C59.2957 3.44172 60.1868 4.89722 60.1751 6.79718C60.1708 7.49717 59.7616 8.99469 58.9475 11.2897C58.234 13.4854 57.0165 16.328 55.295 19.8175L48.6085 33.8767C50.4067 34.1877 52.1514 35.0484 53.8428 36.4589C55.6348 37.7699 56.5268 39.0754 56.5188 40.3754C56.5108 41.6753 56.0028 42.9722 54.9949 44.2661C53.9875 45.4599 53.1338 46.0547 52.4339 46.0504C51.8339 46.0467 51.5354 45.7949 51.5385 45.2949L53.6725 39.7579C53.6793 38.6579 51.9327 38.0972 48.4328 38.0757L47.2328 38.0683C46.1174 40.5615 44.4368 45.5512 42.1907 53.0376C39.9459 60.3239 38.8192 64.6671 38.8106 66.0671C38.802 67.4671 39.0456 68.5186 39.5413 69.2216C40.137 69.9253 40.4342 70.3771 40.433 70.5771C40.4317 70.7771 40.0311 70.8747 39.2312 70.8698ZM83.2035 66.7898C78.5036 66.7609 74.562 65.3867 71.3786 62.6671C68.2959 59.8481 66.7677 56.2886 66.7941 51.9887C66.8298 46.1888 69.9791 38.158 76.2423 27.8963C82.4054 17.6339 87.837 12.5172 92.5369 12.5461C93.1369 12.5498 93.6859 12.7031 94.1841 13.0062C94.6828 13.2093 95.4301 13.6639 96.4258 14.37C97.1233 14.7743 97.7205 15.228 98.2174 15.731C98.815 16.1347 99.1122 16.5865 99.1091 17.0865C99.1067 17.4865 98.5054 17.6828 97.3055 17.6754L96.2555 17.669C92.8555 17.6481 87.8774 22.2176 81.321 31.3775C74.8652 40.4381 71.6226 47.3683 71.5931 52.1682C71.5606 57.4681 74.4942 60.1361 80.3941 60.1724C85.094 60.2013 91.1093 57.7382 98.4398 52.7831C102.055 50.3052 105.422 47.5759 108.54 44.595C111.759 41.5147 114.73 38.2329 117.451 34.7495C122.994 27.7834 125.782 21.6504 125.814 16.3505C125.855 9.75065 119.125 6.40925 105.625 6.32633C96.0255 6.26737 87.6674 7.56606 80.5509 10.2224L79.7982 10.6678C79.4982 10.6659 79.3488 10.565 79.35 10.365C80.8678 7.47429 84.4813 5.29645 90.1904 3.83149C96.0995 2.36775 101.754 1.65247 107.154 1.68564C112.854 1.72065 118.293 3.55409 123.47 7.18596C126.359 9.10374 128.396 11.2163 129.582 13.5236C130.768 15.7309 131.353 18.1346 131.337 20.7345C131.323 23.0345 130.858 25.4817 129.942 28.0761C129.127 30.5711 127.911 33.1137 126.295 35.7039C122.961 41.2835 118.88 46.3585 114.052 50.9289C109.224 55.3994 103.951 59.1671 98.2318 62.232C95.622 63.816 93.015 64.95 90.4108 65.634C87.9059 66.4186 85.5035 66.8039 83.2035 66.7898ZM177.715 71.7204C174.215 71.6989 172.492 67.2882 172.546 58.4884C172.581 52.7885 173.72 46.4453 175.963 39.459C175.664 39.3571 174.914 39.3025 173.714 39.2952C167.814 39.2589 160.157 40.4619 150.741 42.9041L143.98 44.6626L142.629 44.9543C142.129 44.9513 141.433 44.297 140.541 42.9915C139.749 41.5866 139.356 40.4342 139.362 39.5342C139.373 37.7342 140.788 35.2429 143.608 32.0601C146.427 28.8774 150.75 25.1539 156.577 20.8896L171.646 9.73191L175.583 3.60598C175.588 2.90599 177.19 2.56582 180.39 2.58548C183.49 2.60452 185.032 3.81402 185.017 6.21397C185.015 6.61397 183.807 7.90657 181.393 10.0918C179.081 12.1776 175.463 15.0555 170.54 18.7253L166.924 21.4031C161.075 29.3674 158.153 32.9495 158.158 32.1495C158.16 31.7495 159.424 29.4572 161.95 25.2726C159.036 27.4548 156.324 29.5382 153.811 31.5228C151.4 33.408 149.189 35.1945 147.178 36.8821C152.185 35.8129 156.99 34.9924 161.594 34.4206C166.297 33.8495 170.799 33.5772 175.099 33.6036L178.399 33.6238L184.938 19.1137C188.082 12.0329 189.66 7.49251 189.672 5.49255C189.676 4.89256 189.229 4.33981 188.332 3.83429C187.536 3.22939 187.138 2.87694 187.139 2.77694C187.443 1.97879 188.496 1.58525 190.296 1.59631C191.096 1.60122 191.995 1.75675 192.993 2.06288C194.092 2.26963 195.089 2.67577 195.986 3.28129C197.779 4.29232 198.67 5.74782 198.659 7.64779C198.655 8.34778 198.245 9.84529 197.431 12.1403C196.718 14.336 195.5 17.1786 193.779 20.6681L187.092 34.7273C188.89 35.0383 190.635 35.899 192.327 37.3095C194.118 38.6205 195.01 39.926 195.003 41.226C194.995 42.5259 194.487 43.8228 193.479 45.1167C192.471 46.3105 191.618 46.9053 190.918 46.901C190.318 46.8973 190.019 46.6455 190.022 46.1455L192.156 40.6085C192.163 39.5085 190.416 38.9478 186.916 38.9263L185.716 38.9189C184.601 41.4121 182.92 46.4019 180.674 53.8882C178.43 61.1746 177.303 65.5177 177.294 66.9177C177.286 68.3177 177.529 69.3692 178.025 70.0722C178.621 70.7759 178.918 71.2277 178.917 71.4277C178.915 71.6277 178.515 71.7253 177.715 71.7204Z" fill="#627A94"/>
</g>
<defs>
<filter id="filter0_i_4440_2" x="0.681885" y="0.434326" width="198.014" height="75.4124" filterUnits="userSpaceOnUse" color-interpolation-filters="sRGB">
<feFlood flood-opacity="0" result="BackgroundImageFix"/>
<feBlend mode="normal" in="SourceGraphic" in2="BackgroundImageFix" result="shape"/>
<feColorMatrix in="SourceAlpha" type="matrix" values="0 0 0 0 0 0 0 0 0 0 0 0 0 0 0 0 0 0 127 0" result="hardAlpha"/>
<feOffset dy="4"/>
<feGaussianBlur stdDeviation="2"/>
<feComposite in2="hardAlpha" operator="arithmetic" k2="-1" k3="1"/>
<feColorMatrix type="matrix" values="0 0 0 0 0.843278 0 0 0 0 0.895833 0 0 0 0 0.238889 0 0 0 0.25 0"/>
<feBlend mode="normal" in2="shape" result="effect1_innerShadow_4440_2"/>
</filter>
</defs>
</svg>
