<svg width="472" height="91" viewBox="0 0 472 91" fill="none" xmlns="http://www.w3.org/2000/svg">
<g filter="url(#filter0_i_4510_3)">
<path d="M28.8436 88.1787C21.2438 88.132 15.0574 85.894 10.2845 81.4646C5.611 77.1358 3.29728 71.2215 3.34334 63.7216C3.3501 62.6216 3.40747 61.422 3.51545 60.1226C3.72343 58.8239 3.93203 57.4251 4.14124 55.9264C3.64125 55.9233 2.99648 55.0693 2.20694 53.3644C1.51739 51.6602 1.17416 50.558 1.17723 50.058C1.18091 49.4581 1.38275 49.1593 1.78274 49.1617L6.12713 50.0884C10.2989 38.4139 18.3117 28.2129 30.1656 19.4855C42.12 10.6588 53.6971 6.2798 64.8969 6.34859C68.7968 6.37255 71.4443 6.78882 72.8394 7.5974C73.9621 3.90423 75.0747 1.86102 76.1771 1.46778C76.4777 1.36963 76.828 1.32178 77.228 1.32424C80.7279 1.34574 82.4739 2.00647 82.4659 3.30645C82.1659 3.30461 81.0073 4.69752 78.9902 7.48518C78.3847 8.38148 77.3755 9.87531 75.9626 11.9667C74.6503 13.9586 73.5902 15.6022 72.7823 16.8972C72.0743 18.1929 71.3657 19.5886 70.6565 21.0842C70.0479 22.4805 69.7412 23.5787 69.7363 24.3787L70.3224 26.6323C70.3212 26.8323 70.2206 26.9317 70.0206 26.9305C68.5206 26.9212 67.7817 25.1167 67.8038 21.5167C67.8253 18.0168 68.9983 14.2739 71.3228 10.2881C70.6235 10.1838 69.9238 10.1295 69.2238 10.1252C68.6244 10.0216 68.0747 9.96818 67.5747 9.96511C57.1749 9.90123 46.4493 14.0354 35.398 22.3677C24.2472 30.5994 16.7896 39.9537 13.0252 50.4308C16.7251 50.4536 20.425 50.4763 24.125 50.499C27.9255 50.4223 31.3257 50.3932 34.3257 50.4117C37.4262 50.3307 39.7268 50.2448 41.2274 50.154C44.2286 49.9725 47.2807 49.6412 50.3837 49.1603C53.5867 48.6799 56.7906 48.0496 59.9955 47.2693C60.6955 47.2736 61.0439 47.5257 61.0408 48.0257C61.0292 49.9257 54.7676 51.7872 42.2562 53.6104C29.6454 55.333 19.2894 56.2694 11.1883 56.4197C10.8767 58.3178 10.7156 60.1168 10.7052 61.8168C10.664 68.5167 12.8805 73.9804 17.3546 78.2079C21.8294 82.3355 27.5667 84.4208 34.5665 84.4638C48.5663 84.5498 60.9517 78.8257 71.7227 67.2917C73.1313 65.9003 74.1356 65.2065 74.7356 65.2101C75.1355 65.2126 75.3337 65.5138 75.33 66.1138C75.3245 67.0138 74.8687 67.961 73.9625 68.9555C68.6258 74.9228 61.6467 79.63 53.0254 83.0771C44.3041 86.5236 36.2435 88.2242 28.8436 88.1787ZM106.891 86.408C104.791 86.3951 103.759 83.4888 103.795 77.6889C103.849 68.789 107.464 58.261 114.639 46.1049C113.056 43.2951 112.267 41.4402 112.273 40.5402C112.285 38.6403 113.59 37.6983 116.19 37.7142C117.39 37.7216 118.187 38.3265 118.579 39.529C127.057 26.9808 135.658 18.6335 144.384 14.487C144.584 14.4882 144.734 14.4891 144.834 14.4897C145.034 14.391 145.184 14.3419 145.284 14.3425C145.884 14.3462 146.633 14.6008 147.53 15.1063C148.427 15.6118 148.874 16.1146 148.871 16.6146C148.868 17.0146 148.717 17.2136 148.417 17.2118L141.475 24.0693C138.557 26.9514 135.487 30.2326 132.264 33.9129C129.041 37.5932 125.667 41.6225 122.14 46.0009C123.623 48.7101 124.863 50.4177 125.858 51.1239C126.954 51.7306 128.953 52.0429 131.853 52.0607C138.552 52.1019 145.861 50.6967 153.779 47.8453C161.697 44.9939 168.269 41.4342 173.495 37.1662C178.822 32.7988 181.497 28.7152 181.52 24.9153C181.544 21.0153 178.563 17.947 172.577 15.7102C166.591 13.3733 158.698 12.1748 148.898 12.1147C123.199 11.9568 102.415 17.3292 86.5481 28.232C85.1432 29.0234 84.1407 29.4172 83.5407 29.4135C81.9408 29.4037 81.1457 28.5988 81.1555 26.9988C81.177 23.4989 84.5463 20.3696 91.2634 17.6108C97.8811 14.7513 105.845 12.5002 115.155 10.8574C119.76 10.0856 124.264 9.51329 128.666 9.14033C133.069 8.66737 137.321 8.44347 141.42 8.46866L143.37 8.48063C155.77 8.5568 165.86 10.2188 173.64 13.4666C178.029 15.2936 181.017 17.312 182.603 19.5218C184.29 21.6322 185.126 23.9874 185.11 26.5873C185.086 30.4873 183.514 34.1277 180.393 37.5086C177.372 40.8901 173.353 43.9155 168.337 46.5847C163.421 49.1546 158.059 51.1717 152.249 52.636C146.441 54.0004 140.837 54.6659 135.437 54.6328C132.437 54.6144 129.638 54.4472 127.04 54.1312C138.822 73.4039 147.662 83.0584 153.562 83.0946C154.662 83.1014 155.614 82.8072 156.418 82.2122C157.221 81.6171 157.727 80.6702 157.935 79.3714L159.174 73.0789C160.17 73.7851 160.662 74.9881 160.652 76.6881C160.646 77.6881 160.439 78.7868 160.032 79.9843C159.625 81.0818 158.868 82.1772 157.761 83.2704C155.949 85.2593 153.493 86.2443 150.393 86.2252C147.293 86.2062 142.663 83.0277 136.501 76.6897C130.341 70.1518 124.192 61.9138 118.053 51.976C109.969 65.6266 105.907 75.7018 105.867 82.2017C105.856 83.9016 106.449 85.1553 107.644 85.9627C107.642 86.2627 107.391 86.4111 106.891 86.408ZM201.84 86.9913C199.741 86.9784 198.708 84.072 198.744 78.2721C198.799 69.3722 202.413 58.8442 209.588 46.6881C208.005 43.8783 207.217 42.0234 207.222 41.1234C207.234 39.2235 208.54 38.2815 211.14 38.2974C212.34 38.3048 213.136 38.9097 213.529 40.1122C222.006 27.564 230.607 19.2167 239.333 15.0702C239.533 15.0714 239.683 15.0723 239.783 15.0729C239.984 14.9742 240.134 14.9251 240.234 14.9257C240.834 14.9294 241.582 15.184 242.479 15.6895C243.376 16.195 243.823 16.6978 243.82 17.1978C243.818 17.5978 243.666 17.7968 243.366 17.795L236.424 24.6525C233.506 27.5346 230.436 30.8158 227.213 34.4961C223.991 38.1764 220.616 42.2057 217.089 46.5841C218.572 49.2933 219.812 51.001 220.808 51.7071C221.904 52.3138 223.902 52.6261 226.802 52.6439C233.502 52.6851 240.811 51.2799 248.728 48.4285C256.646 45.5771 263.218 42.0174 268.444 37.7494C273.771 33.382 276.446 29.2984 276.47 25.4985C276.494 21.5985 273.512 18.5302 267.526 16.2934C261.54 13.9566 253.647 12.7581 243.848 12.6979C218.148 12.54 197.365 17.9125 181.497 28.8152C180.093 29.6066 179.09 30.0004 178.49 29.9968C176.89 29.9869 176.095 29.182 176.105 27.5821C176.126 24.0821 179.496 20.9528 186.213 18.194C192.83 15.3346 200.794 13.0834 210.105 11.4406C214.71 10.6688 219.213 10.0965 223.615 9.72354C228.018 9.25057 232.27 9.02668 236.37 9.05186L238.32 9.06384C250.72 9.14 260.81 10.802 268.59 14.0499C272.979 15.8768 275.966 17.8952 277.553 20.105C279.24 22.2154 280.075 24.5706 280.059 27.1706C280.035 31.0705 278.463 34.7109 275.342 38.0918C272.321 41.4733 268.303 44.4987 263.286 47.1679C258.37 49.7378 253.008 51.7549 247.199 53.2192C241.39 54.5836 235.786 55.2491 230.386 55.216C227.386 55.1976 224.587 55.0304 221.989 54.7144C233.771 73.9871 242.612 83.6416 248.512 83.6779C249.612 83.6846 250.564 83.3904 251.367 82.7954C252.171 82.2003 252.677 81.2534 252.885 79.9546L254.123 73.6621C255.119 74.3683 255.612 75.5713 255.601 77.2713C255.595 78.2713 255.388 79.37 254.981 80.5675C254.574 81.6651 253.817 82.7604 252.711 83.8536C250.898 85.8426 248.442 86.8275 245.342 86.8084C242.243 86.7894 237.612 83.6109 231.451 77.2729C225.291 70.735 219.141 62.4971 213.002 52.5592C204.918 66.2098 200.856 76.285 200.816 82.7849C200.806 84.4848 201.398 85.7385 202.593 86.5459C202.591 86.8459 202.34 86.9943 201.84 86.9913ZM296.777 89.6744C290.177 89.6339 284.691 87.4001 280.318 82.9732C276.044 78.6469 273.928 73.0838 273.97 66.2839C274.025 57.2841 277.579 48.5057 284.632 39.9489C291.686 31.192 300.48 24.1459 311.013 18.8105C321.745 13.4763 332.062 10.8397 341.962 10.9005C348.962 10.9435 354.553 12.3778 358.736 15.2036C362.919 17.9293 364.996 21.6421 364.967 26.3421C364.953 28.742 363.882 32.1355 361.755 36.5225C362.148 37.625 362.338 39.2761 362.324 41.4761C362.265 51.1759 356.806 60.7926 345.947 70.3261C337.502 77.5743 329.671 82.5763 322.454 85.332C315.136 88.2872 306.577 89.7346 296.777 89.6744ZM303.701 85.8169C310.301 85.8574 317.511 84.1517 325.333 80.6996C333.054 77.247 339.834 72.3386 345.673 65.9743C351.715 59.3113 355.108 52.232 355.854 44.7364C350.719 50.405 343.888 55.4631 335.361 59.9108C334.659 60.2065 334.308 60.2544 334.31 60.0544C334.309 60.1544 335.716 59.063 338.53 56.7802C346.27 50.3277 352.004 44.8128 355.732 40.2356C355.056 36.3314 353.177 32.9198 350.095 30.0008C347.113 26.9824 343.376 24.8094 338.884 23.4818C337.886 23.1757 336.637 22.968 335.138 22.8588C333.739 22.7502 331.889 22.6388 329.59 22.5247C327.991 22.3149 326.492 22.1557 325.093 22.0471C323.794 21.9391 322.894 21.8335 322.395 21.7305L322.847 21.4333C326.453 20.3554 330.507 19.8303 335.007 19.8579C339.806 19.8874 344.649 21.1172 349.534 23.5472C354.421 25.7773 358.001 28.8993 360.277 32.9134C360.987 31.2177 361.348 29.4199 361.36 27.5199C361.386 23.22 359.607 19.809 356.023 17.2869C352.539 14.6655 347.847 13.3367 341.947 13.3004C332.847 13.2445 323.732 15.6386 314.602 20.4826C305.373 25.226 297.683 31.6789 291.533 39.8413C285.383 48.0036 282.281 56.3848 282.228 64.9846C282.188 71.5845 284.056 76.696 287.834 80.3193C291.712 83.9432 297.001 85.7757 303.701 85.8169ZM392.911 88.1649C390.811 88.152 389.779 85.2456 389.815 79.4457C389.869 70.5458 393.484 60.0178 400.659 47.8617C399.076 45.0519 398.287 43.197 398.293 42.297C398.305 40.3971 399.61 39.4551 402.21 39.4711C403.41 39.4784 404.207 40.0833 404.599 41.2858C413.077 28.7376 421.678 20.3903 430.404 16.2438C430.604 16.245 430.754 16.2459 430.854 16.2465C431.054 16.1478 431.204 16.0987 431.304 16.0993C431.904 16.103 432.653 16.3576 433.55 16.8631C434.447 17.3686 434.894 17.8714 434.891 18.3714C434.888 18.7714 434.737 18.9705 434.437 18.9686L427.495 25.8261C424.577 28.7082 421.507 31.9894 418.284 35.6697C415.061 39.35 411.687 43.3793 408.16 47.7578C409.643 50.4669 410.883 52.1746 411.878 52.8807C412.974 53.4874 414.973 53.7997 417.873 53.8175C424.572 53.8587 431.881 52.4535 439.799 49.6021C447.717 46.7507 454.289 43.191 459.515 38.923C464.842 34.5557 467.517 30.472 467.54 26.6721C467.564 22.7722 464.583 19.7038 458.597 17.467C452.611 15.1302 444.718 13.9317 434.918 13.8715C409.219 13.7136 388.435 19.0861 372.568 29.9888C371.163 30.7802 370.161 31.174 369.561 31.1704C367.961 31.1605 367.166 30.3556 367.176 28.7557C367.197 25.2557 370.566 22.1264 377.283 19.3676C383.901 16.5082 391.865 14.257 401.175 12.6142C405.78 11.8425 410.284 11.2701 414.686 10.8971C419.089 10.4242 423.341 10.2003 427.44 10.2255L429.39 10.2374C441.79 10.3136 451.88 11.9756 459.66 15.2235C464.049 17.0505 467.037 19.0688 468.623 21.2786C470.31 23.389 471.146 25.7442 471.13 28.3442C471.106 32.2441 469.534 35.8845 466.413 39.2654C463.392 42.6469 459.373 45.6723 454.357 48.3415C449.441 50.9114 444.079 52.9285 438.269 54.3928C432.461 55.7572 426.857 56.4228 421.457 56.3896C418.457 56.3712 415.658 56.204 413.06 55.888C424.842 75.1607 433.682 84.8152 439.582 84.8515C440.682 84.8582 441.634 84.5641 442.438 83.969C443.241 83.3739 443.747 82.427 443.955 81.1282L445.194 74.8357C446.19 75.5419 446.682 76.7449 446.672 78.4449C446.666 79.4449 446.459 80.5436 446.052 81.7411C445.645 82.8387 444.888 83.934 443.781 85.0273C441.969 87.0162 439.513 88.0011 436.413 87.9821C433.313 87.963 428.683 84.7845 422.521 78.4465C416.361 71.9086 410.212 63.6707 404.073 53.7328C395.989 67.3834 391.927 77.4586 391.887 83.9585C391.876 85.6585 392.469 86.9121 393.664 87.7195C393.662 88.0195 393.411 88.1679 392.911 88.1649Z" fill="#627A94"/>
</g>
<defs>
<filter id="filter0_i_4510_3" x="0.944153" y="0.859009" width="470.337" height="94.0339" filterUnits="userSpaceOnUse" color-interpolation-filters="sRGB">
<feFlood flood-opacity="0" result="BackgroundImageFix"/>
<feBlend mode="normal" in="SourceGraphic" in2="BackgroundImageFix" result="shape"/>
<feColorMatrix in="SourceAlpha" type="matrix" values="0 0 0 0 0 0 0 0 0 0 0 0 0 0 0 0 0 0 127 0" result="hardAlpha"/>
<feOffset dy="4"/>
<feGaussianBlur stdDeviation="2"/>
<feComposite in2="hardAlpha" operator="arithmetic" k2="-1" k3="1"/>
<feColorMatrix type="matrix" values="0 0 0 0 0.843278 0 0 0 0 0.895833 0 0 0 0 0.238889 0 0 0 0.25 0"/>
<feBlend mode="normal" in2="shape" result="effect1_innerShadow_4510_3"/>
</filter>
</defs>
</svg>
