<svg width="585" height="481" viewBox="0 0 585 481" fill="none" xmlns="http://www.w3.org/2000/svg">
<path d="M584.849 17.2883C482.871 14.9827 70.4814 16.2704 11.6695 17.3135C7.92805 17.3782 0.802147 19.4716 0.0142626 33.2151C-0.129342 35.7113 0.848812 127.423 1.27186 170.531C1.6988 214.37 2.13731 258.204 2.57201 302.042C2.81653 326.717 3.0611 351.387 3.30949 376.062C3.33278 378.392 3.98482 380.77 5.15307 382.885C7.48567 388.41 12.9931 392.704 19.8589 392.467C55.9851 391.226 541.299 391.56 577.235 394.592C579.773 394.808 582.315 395.038 584.849 395.276V17.2883V17.2883Z" fill="#FFFFF7"/>
<path d="M62.4976 267.591C61.9775 267.167 61.2207 266.976 60.5376 267.102C60.5881 266.897 60.6424 266.696 60.6928 266.491C61.3216 264.023 57.2386 263.113 56.5672 265.566C55.2398 270.397 53.9862 275.278 53.3535 280.234C53.0353 282.723 51.6225 288.78 56.2489 290.511C58.923 291.51 63.4174 292.554 64.05 290.91C64.9311 288.615 61.469 282.011 62.1055 279.644C62.7149 277.386 63.2117 275.102 63.5921 272.803C63.9026 270.929 64.1936 268.976 62.4976 267.591Z" fill="#7D483E"/>
<path d="M126.821 318.091C126.953 317.221 126.98 316.332 126.883 315.415C126.863 315.242 125.559 311.307 124.966 309.933C124.977 309.71 118.321 281.813 118.282 281.475C117.304 273.131 115.294 264.775 113.155 256.618C112.802 255.265 113.237 255.927 112.154 256.315C111.583 254.952 110.632 253.88 108.851 253.798C104.694 253.603 105.571 258.456 105.932 260.837C107.015 267.944 108.246 275.418 110.908 282.187C110.974 282.353 111.04 282.526 111.11 282.705C111.366 284.522 111.467 286.378 111.785 288.155C112.503 292.143 114.168 295.952 115.585 299.762C116.823 303.089 119.687 308.495 122.326 310.61C122.388 310.897 122.431 311.192 122.447 311.491C122.493 312.397 122.319 313.268 122.482 314.174C122.718 315.501 123.46 316.656 124.302 317.735C124.321 318.76 124.216 319.789 123.914 320.825C123.626 321.799 125.245 322.407 125.718 321.468C126.239 320.436 126.592 319.389 126.778 318.314C126.794 318.253 126.805 318.188 126.813 318.116C126.821 318.109 126.821 318.098 126.821 318.091Z" fill="#7D483E"/>
<path d="M70.8461 382.78C69.9728 381.845 68.8862 385.19 68.2923 386.287C68.0129 386.805 67.7683 387.341 67.5549 387.887C67.5588 387.844 67.5588 387.797 67.5626 387.754C67.7295 385.219 63.503 385.24 63.3128 387.754C62.785 394.833 62.7035 401.937 62.7268 409.033C62.7345 412.249 62.5134 415.565 62.8743 418.763C63.1188 420.935 63.7126 424.438 66.802 422.676C67.9857 422 68.2846 420.773 68.4864 419.604C68.8085 417.763 69.0647 415.907 69.3441 414.062C69.8254 410.882 70.2794 407.695 70.6675 404.505C71.0867 401.03 71.4282 397.545 71.6262 394.052C71.7737 391.348 72.9108 384.985 70.8461 382.78Z" fill="#7D483E"/>
<path d="M68.7077 422.507C68.3894 420.328 68.0867 420.518 66.0995 420.364C65.82 420.342 64.0774 420.324 63.8484 420.36C62.4628 420.587 62.0164 422.522 61.9155 423.403C61.7563 424.834 61.1509 427.604 62.7655 428.489C63.4836 428.881 64.3762 428.776 65.1797 428.773C66.084 428.769 67.0853 428.881 67.8383 428.316C68.6572 427.697 68.6495 426.493 68.731 425.59C68.8241 424.572 68.8551 423.518 68.7077 422.507Z" fill="#27374D"/>
<path d="M90.3531 425.273C91.4244 418.364 95.8607 385.665 95.0339 385.888C93.9511 386.183 92.6004 387.535 91.5331 387.596C91.0595 387.147 90.1359 387.068 89.7361 387.654C89.3868 387.657 89.0375 387.661 88.6804 387.668C88.6726 387.668 88.6649 387.668 88.6571 387.668C88.3194 386.988 87.2055 386.974 86.6621 387.517C86.4719 387.708 86.3012 387.909 86.1421 388.121C85.7423 388.291 85.3619 388.514 85.0126 388.819C84.9427 388.88 84.8845 388.942 84.834 389.01C84.4576 389.114 84.1471 389.395 84.1083 389.88C83.8909 392.538 83.7318 407.21 84.0694 409.807C84.3062 414.44 84.609 419.115 85.2649 423.683C85.5133 425.413 86.3865 427.359 88.5057 427.618C90.683 427.881 90.0815 427.039 90.3531 425.273Z" fill="#7D483E"/>
<path d="M100.619 425.399C98.7947 424.417 97.1064 423.489 95.2317 422.583C93.8966 421.935 92.5654 421.227 91.0478 421.047C89.6157 420.874 85.8082 421.183 85.6142 421.198C83.7706 421.338 83.9919 424.446 84.0035 426.172C84.0268 429.284 87.2171 428.654 89.6312 428.722C93.2912 428.827 96.792 429.233 100.448 429.147C101.399 429.125 103.045 429.111 103.549 428.539C103.844 428.212 104.904 427.705 100.619 425.399Z" fill="#27374D"/>
<path d="M107.139 276.411C107.147 276.357 118.286 274.458 119.183 273.595C120.673 272.159 120.177 269.616 119.641 267.93C118.411 264.034 117.056 260.16 115.659 256.301C114.572 249.769 112.228 243.449 108.735 237.626C106.352 233.702 92.6548 231.745 91.18 230.102C90.2989 229.12 80.1573 229.641 78.3953 231.019C77.3978 231.242 65.4243 233.519 61.5004 239.346C58.1509 244.316 57.3979 247.406 55.3719 252.945C54.3589 255.718 53.5361 258.549 52.8686 261.408C52.2398 264.092 51.2112 267.279 51.4519 270.037C51.7003 272.864 54.4482 274.253 57.0409 275.08C58.6166 275.58 60.2506 275.911 61.904 276.094C61.9545 276.339 62.0049 276.584 62.0554 276.828C61.7643 285.669 58.5118 294.409 55.9852 302.855C52.6706 313.933 49.356 325.011 46.0454 336.086C44.3881 341.625 42.7308 347.164 41.0735 352.703C39.5948 357.645 38.0307 362.602 37.3437 367.702C36.1173 376.755 37.7784 389.783 48.8437 393.031C54.3317 394.642 77.4171 393.009 79.9671 393.851C85.4823 395.671 90.9432 395.552 96.6331 394.75C98.0769 394.545 99.6022 394.304 101.069 394.423C102.354 394.527 103.569 394.963 104.803 395.275C107.621 395.988 110.427 395.955 113.229 395.204C115.767 394.524 118.511 393.384 120.724 392.035C123.196 390.528 124.065 388.265 123.961 385.618C123.743 380.1 122.521 374.561 121.065 369.22C118.166 358.559 108.354 296.773 107.139 276.411Z" fill="#F7D5D9"/>
<path d="M101.729 212.956C101.449 211.193 101.143 208.83 99.6253 207.568C97.805 206.053 95.7286 207.1 94.3857 208.575C92.907 210.193 91.859 212.064 90.9275 213.988C90.4734 214.923 90.0271 215.869 89.6313 216.837C87.5238 217.603 85.4901 219.038 84.512 220.858C84.4809 220.703 84.4498 220.552 84.4304 220.401C84.1083 217.898 79.8545 217.991 80.1689 220.527C80.6812 224.688 83.5183 228.598 88.0361 229.771C92.5732 230.947 96.6717 228.228 99.0897 224.858C101.558 221.408 102.373 217.013 101.729 212.956Z" fill="#7D483E"/>
<path d="M107.458 238.702C105.397 236.99 102.703 235.925 100.188 234.925C97.3975 233.817 94.3857 232.803 92.022 230.983C90.6326 229.911 89.6157 228.598 88.8123 227.167C94.5254 226.221 99.9824 221.721 101.508 216.865C103.67 209.97 101.205 202.179 94.607 198.169C87.1473 193.637 76.9979 196.482 73.6795 204.143C73.2525 205.132 72.9382 206.143 72.7286 207.168C72.422 207.985 72.2084 208.812 72.0998 209.632C71.6418 213.096 72.8527 217.088 75.1116 220.412C76.1867 222.365 77.5412 224.178 79.0859 225.764C79.1713 227.019 79.2529 228.271 79.3422 229.526C79.5634 232.634 80.002 235.619 81.4109 238.475C84.1277 243.978 89.1849 247.942 94.4711 251.294C97.3122 253.096 99.8039 253.413 102.715 251.51C105.009 250.01 106.934 248.017 108.23 245.705C109.627 243.223 109.868 240.705 107.458 238.702Z" fill="#2C294C"/>
<path d="M254.392 176.656C252.456 171.257 249.797 165.944 246.168 161.333C242.656 156.87 238.689 152.881 234.373 149.082C230.717 145.863 226.945 142.745 223.521 139.306C222.745 138.526 221.988 137.731 221.255 136.911C221.177 136.824 221.103 136.738 221.026 136.652C220.762 136.314 220.494 135.976 220.242 135.634C219.601 134.767 218.996 133.871 218.437 132.958C218.111 132.422 217.797 131.875 217.502 131.321C217.374 131.084 217.257 130.843 217.129 130.602C216.481 129.372 217.366 131.307 217.525 131.498C216.823 130.645 216.555 128.969 216.264 127.944C215.996 127.012 215.786 126.07 215.608 125.124C215.301 122.049 215.367 118.973 215.709 115.902C217.898 103.824 224.833 92.1734 221.041 79.7067C220.459 77.7968 219.691 75.9876 218.759 74.2791C211.28 74.3043 203.805 74.3295 196.326 74.3547C188.707 74.3798 184.112 74.218 176.497 74.2467C170.229 74.2719 151.657 71.8476 145.183 77.6026C141.846 80.57 142.602 88.5837 142.835 92.6302C143.332 101.216 141.624 187.864 142.117 196.449C142.358 200.596 142.501 204.761 142.847 208.901C143.161 212.685 143.969 216.75 146.98 219.559C150.477 222.818 155.209 222.976 159.854 223.289C164.45 223.598 169.049 223.871 173.648 224.109C176.695 224.267 208.4 224.091 249.514 223.803C257.796 209.506 260.04 192.396 254.392 176.656Z" fill="#F79E88"/>
<path d="M290.127 197.539C289.188 187.493 287.208 177.505 283.723 167.944C280.432 158.916 275.561 150.629 271.431 141.961C270.275 139.245 269.32 136.476 268.714 133.613C268.598 132.127 268.594 130.645 268.707 129.156C269.137 127.117 269.758 125.131 270.542 123.182C272.859 118.614 275.871 114.402 279.151 110.377C286.021 102.252 293.321 93.9538 295.176 83.4511C295.739 80.2679 295.984 77.1638 295.988 74.049C277.862 74.1101 259.741 74.1712 241.616 74.2324C226.638 74.2827 211.661 74.3331 196.687 74.3835C192.852 74.3978 189.782 74.3619 186.705 74.3259C185.758 77.1818 185.008 80.088 184.508 83.0339C182.901 92.4899 182.905 101.532 184.795 110.97C186.239 118.171 189.976 124.772 191.513 131.911C192.138 140.022 189.747 148.162 189.693 156.28C189.627 165.675 191.125 175.17 193.427 184.306C195.542 192.705 198.469 200.909 201.678 208.999C203.658 213.984 205.556 219.145 207.842 224.105C229.064 223.99 258.115 223.782 288.862 223.551C290.946 215.12 290.926 206.096 290.127 197.539Z" fill="#F7D5D9"/>
<path d="M352.754 223.008C353.717 221.185 354.625 219.336 355.486 217.476C365.492 195.859 373.235 173.232 378.401 150.201C381.06 138.342 383.19 126.264 384.231 114.19C385.178 103.241 384.762 91.5835 380.769 81.1419C379.787 78.5701 378.634 76.0847 377.31 73.7108C362.115 73.7612 346.924 73.8115 331.73 73.8655C310.131 73.9374 288.528 74.013 266.929 74.0849C263.11 80.4981 260.362 87.4903 258.957 94.8602C257.086 104.669 256.745 114.614 255.468 124.484C254.684 129.246 253.531 133.929 251.688 138.432C248.932 143.939 245.287 148.989 241.34 153.827C235.15 161.117 228.532 168.124 222.924 175.821C220.331 179.382 218.018 183.108 216.182 187.054C214.824 189.971 213.493 192.888 212.565 195.953C211.478 199.553 210.962 203.254 210.454 206.959C209.685 212.584 209.258 218.365 209.278 224.04C245.373 223.832 302.605 223.382 352.754 223.008Z" fill="#BDC7D2"/>
<path d="M418.214 213.048C422.806 197.086 420.873 180.393 418.253 164.311C415.89 149.82 413.045 135.235 409.163 121.023C405.286 106.82 399.759 92.6625 391.279 80.2318C389.754 77.9946 388.151 75.8257 386.474 73.7144C368.279 73.7755 350.088 73.8367 331.893 73.8978C309.378 73.9733 286.867 74.0489 264.352 74.1244C264.305 76.4983 264.41 78.8614 264.682 81.185C265.33 86.7277 266.351 92.1194 268.602 97.306C271.218 103.323 274.412 108.413 278.926 113.391C285.338 120.459 293.927 125.545 301.848 131.062C305.066 133.44 308.144 135.972 310.814 138.871C311.819 140.213 312.716 141.608 313.496 143.072C314.144 144.773 314.633 146.511 314.986 148.284C315.401 152.794 315.075 157.312 314.489 161.801C312.335 175.569 308.955 189.529 313.034 203.297C315.141 210.416 319.05 217.203 323.587 223.26C357.144 223.008 389.994 222.76 414.469 222.609C416.029 219.498 417.283 216.282 418.214 213.048Z" fill="#FCD6CD"/>
<path d="M471.869 89.6844C471.154 83.6561 467.421 78.732 461.401 76.2826C456.2 74.164 450.491 73.6245 444.851 73.6065C437.326 73.5849 429.796 73.6569 422.27 73.6821C396.033 73.772 369.796 73.8583 343.559 73.9482C343.517 74.5669 343.478 75.1819 343.443 75.8042C342.896 86.3105 344.359 96.7522 349.963 106.046C354.57 113.686 361.39 119.916 367.281 126.696C369.129 129.037 370.798 131.472 372.168 134.08C373.119 136.483 373.817 138.95 374.295 141.472C374.776 146.27 374.555 151.082 373.965 155.866C372.82 162.941 371.069 169.912 369.501 176.915C367.441 186.133 365.931 195.467 364.828 204.826C364.118 210.865 363.567 216.969 363.885 223.048C412.152 222.692 451.539 222.436 455.005 222.587C459.216 222.774 463.586 222.785 467.39 220.843C471.081 218.958 473.503 215.39 474.31 211.613C475.106 207.898 474.865 204.172 474.69 200.417C474.5 196.287 472.241 92.8316 471.869 89.6844Z" fill="#F79E88"/>
<path d="M330.771 231.569L327.604 231.101C326.308 230.91 325.423 229.781 325.628 228.58L328.128 214.016C328.333 212.815 329.552 211.995 330.848 212.185L334.016 212.653C335.312 212.843 336.197 213.973 335.991 215.174L333.492 229.738C333.286 230.943 332.067 231.763 330.771 231.569Z" fill="#27374D"/>
<path d="M355.719 475.61C355.867 468.632 357.19 435.696 357.962 436.041C358.979 436.494 360.078 438.03 361.118 438.25C361.665 437.879 362.593 437.937 362.88 438.573C363.225 438.631 363.571 438.689 363.92 438.746C363.928 438.746 363.936 438.75 363.943 438.75C364.393 438.127 365.5 438.282 365.938 438.897C366.093 439.113 366.225 439.34 366.346 439.57C366.711 439.796 367.044 440.073 367.339 440.429C367.398 440.498 367.444 440.57 367.479 440.642C367.836 440.804 368.088 441.124 368.046 441.609C367.797 444.264 365.399 458.77 364.611 461.28C363.571 465.816 362.457 470.388 361.009 474.797C360.462 476.47 359.263 478.258 357.124 478.193C354.943 478.132 355.684 477.394 355.719 475.61Z" fill="#F28168"/>
<path d="M345.57 474.197C347.542 473.499 349.37 472.837 351.376 472.225C352.809 471.787 354.245 471.287 355.774 471.333C357.218 471.377 360.92 472.254 361.107 472.297C362.904 472.711 362.143 475.747 361.829 477.448C361.266 480.513 358.227 479.416 355.828 479.124C352.195 478.678 348.671 478.556 345.081 477.923C344.146 477.757 342.527 477.498 342.123 476.858C341.894 476.488 340.94 475.83 345.57 474.197Z" fill="#27374D"/>
<path d="M409.885 476.858C409.031 469.923 405.624 437.117 406.443 437.361C407.518 437.685 408.826 439.073 409.889 439.163C410.378 438.728 411.306 438.67 411.682 439.268C412.032 439.282 412.381 439.296 412.738 439.311C412.746 439.311 412.754 439.311 412.761 439.311C413.118 438.638 414.236 438.656 414.76 439.214C414.946 439.411 415.109 439.616 415.261 439.829C415.657 440.008 416.029 440.242 416.367 440.559C416.433 440.62 416.491 440.685 416.538 440.753C416.914 440.868 417.213 441.156 417.236 441.641C417.372 444.303 417.069 458.975 416.65 461.561C416.27 466.186 415.82 470.851 415.02 475.401C414.717 477.124 413.782 479.045 411.659 479.246C409.478 479.455 410.103 478.631 409.885 476.858Z" fill="#F28168"/>
<path d="M399.623 476.707C401.479 475.776 403.194 474.891 405.096 474.038C406.45 473.427 407.805 472.758 409.326 472.614C410.762 472.481 414.562 472.891 414.752 472.912C416.592 473.099 416.274 476.204 416.208 477.927C416.087 481.034 412.916 480.322 410.502 480.326C406.838 480.329 403.33 480.642 399.678 480.459C398.727 480.412 397.085 480.351 396.596 479.768C396.309 479.43 395.269 478.894 399.623 476.707Z" fill="#27374D"/>
<path d="M426.151 384.639C425.395 374.935 424.541 365.241 423.644 355.548C422.751 345.905 422.041 336.208 420.815 326.604C420.178 321.63 414.601 316.519 412.773 311.821C411.081 307.465 413.223 302.084 407.976 301.38C405.771 301.081 403.543 301.908 402.899 304.261C402.674 305.077 402.759 306.041 403.093 306.915C402.55 306.775 401.999 306.732 401.498 306.807C400.38 306.976 399.538 307.48 398.944 308.206C397.555 305.484 393.476 305.822 391.799 308.224C390.522 307.462 388.783 307.386 387.405 308.066C387.409 308.005 387.413 307.947 387.417 307.886C387.537 305.843 385.74 304.03 383.804 303.8C381.626 303.541 379.996 304.793 379.232 306.782C379.034 307.296 378.847 307.814 378.653 308.332C378.463 308.368 378.273 308.419 378.09 308.498C377.516 308.735 376.977 309.008 376.468 309.314C376.247 309.019 375.995 308.76 375.719 308.555C374.24 307.451 370.743 310.566 370.27 312.544C367.941 322.256 363.656 323.633 361.654 328.769C357.71 338.876 356.577 349.462 354.935 361.371C352.094 381.956 347.654 415.579 345.694 436.268C345.45 438.868 345.209 441.465 344.98 444.066C344.759 446.576 344.277 449.184 344.724 451.687C345.71 457.209 351.578 458.493 356.228 459.701C360.92 460.924 366.206 462.118 371.081 461.985C377.14 461.82 378.758 455.863 380.427 451.08C382.263 445.821 389.241 408.112 390.258 402.641C391.139 408.641 391.124 446.691 392.005 452.691C392.474 455.896 392.928 459.176 395.94 461.057C398.641 462.748 402.511 462.568 405.589 462.708C413.371 463.064 418.862 462.435 426.528 461.09C428.286 460.78 429.61 458.773 429.586 457.075C429.342 437.138 427.7 404.508 426.151 384.639Z" fill="#27374D"/>
<path d="M409.571 198.463C407.223 194.748 398.226 193.532 393.724 193.755C386.039 194.136 382.76 199.953 380.217 206.161C379.511 206.927 378.766 207.664 377.993 208.437C377.023 209.412 375.482 210.308 375.739 211.822C375.898 212.75 376.705 213.336 377.555 213.761C376.709 217.217 376.363 221.116 377.605 223.983C378.762 226.655 382.674 227.022 385.084 228.673C385.461 228.727 384.289 228.939 384.677 228.954C386.055 229.004 387.502 228.756 388.869 228.598C391.768 228.263 394.551 227.814 397.334 226.972C398.35 226.666 399.616 226.173 400.881 225.911C406.586 222.462 410.666 216.376 411.659 210.286C412.311 206.323 411.783 201.963 409.571 198.463Z" fill="#F28168"/>
<path d="M399.825 225.831L385.158 227.26L387.756 250.153L402.423 248.724L399.825 225.831Z" fill="#F28168"/>
<path d="M421.506 313.26C420.877 302.484 420.927 285.021 421.312 274.234C421.653 264.695 422.992 253.851 418.983 247.258C416.286 242.823 415.3 240.237 409.796 239.586C403.742 238.87 386.334 239.158 380.559 240.604C375.878 241.776 372.141 244.665 368.915 248.067C363.672 253.599 364.273 257.52 363.249 264.66C362.698 268.515 362.414 272.403 361.782 276.252C361.145 280.119 359.484 301.574 358.921 305.44C357.078 318.08 354.943 317.54 366.781 319.393C370.86 320.029 391.985 320.677 401.56 319.529C406.28 318.957 421.789 318.159 421.506 313.26Z" fill="#27374D"/>
<path d="M378.844 247.01C377.672 245.643 374.411 244.862 372.312 245.805C364.041 249.524 356.581 254.711 349.277 259.894C347.635 261.055 345.947 262.235 344.351 263.508C342.574 259.721 340.241 256.142 338.176 252.488C334.889 246.661 331.997 240.665 329.463 234.525C330.387 231.637 329.937 228.54 328.039 225.972C327.666 225.465 326.967 225.335 326.459 225.583C326.494 225.224 326.486 224.846 326.521 224.515C326.614 223.558 326.707 222.605 326.801 221.648C326.847 221.184 326.405 220.713 325.943 220.602C322.349 219.735 321.118 225.551 320.796 227.792C320.525 229.666 320.56 231.59 320.986 233.442C321.161 234.209 321.421 234.942 321.914 235.59C322.279 236.068 322.849 236.449 323.296 236.899C326.102 250.049 330.282 264.667 336.705 276.662C338.739 280.46 343.292 278.806 346.385 277.666C350.658 276.09 354.625 273.892 358.549 271.684C362.446 269.49 366.269 267.184 370.014 264.774C373.402 262.591 377.023 260.372 379.344 257.128C381.553 254.027 381.557 250.171 378.844 247.01Z" fill="#F28168"/>
<path d="M422.018 218.778C421.199 215.685 420.128 212.656 419.507 209.516C418.902 206.452 418.409 203.51 416.926 200.672C413.918 194.92 407.712 191.007 400.939 190.183C397.667 189.788 393.794 189.867 391.007 191.701C389.796 192.496 388.985 193.586 388.442 194.809C386.68 196.971 386.311 200.474 385.511 203.013C383.478 209.473 386.128 214.739 385.608 216.052C384.863 217.929 378.89 220.76 376.01 226.555C375.339 227.907 374.605 229.202 374.547 230.709C374.295 237.111 379.643 238.687 385.601 238.111C388.779 237.806 391.892 236.752 395.094 236.73C398.129 236.708 401.048 237.698 403.912 238.528C406.839 239.381 410.076 240.384 413.184 240.129C416.658 239.845 419.208 237.971 420.9 235.209C423.978 230.184 423.45 224.177 422.018 218.778Z" fill="#FFF2E8"/>
<path d="M388.003 207.074C385.383 206.251 382.81 205.319 380.283 204.276C380.668 203.445 381.091 202.629 381.549 201.823C382.014 201.003 380.675 200.276 380.21 201.096C378.937 203.337 377.92 205.672 377.167 208.107C376.891 208.999 378.389 209.38 378.665 208.488C378.968 207.506 379.317 206.546 379.709 205.603C382.29 206.664 384.917 207.625 387.591 208.463C388.538 208.758 388.946 207.369 388.003 207.074Z" fill="#27374D"/>
<path d="M362.158 257.488C362.127 257.452 362.096 257.419 362.065 257.383C362.558 256.93 362.566 256.024 362.116 255.506C361.502 254.801 360.885 254.096 360.272 253.387C360.563 252.29 359.298 251.236 358.525 250.488C357.512 249.503 356.41 248.6 355.312 247.697C354.144 246.355 342.411 233.928 340.87 232.241C340.94 232.04 340.156 229.785 340.066 229.544C339.445 227.857 338.669 226.227 337.648 224.713C337.225 224.087 334.675 220.998 333.934 221.393C331.71 222.58 331.978 224.544 332.277 226.584C332.498 228.083 333.267 229.745 334.02 230.997C334.431 231.684 335.867 233.486 336.457 233.95C337.78 236.863 339.236 241.42 340.579 244.32C343.94 251.56 347.441 255.437 353.802 260.667C354.334 261.106 354.97 261.063 355.448 260.793C356.162 261.559 356.888 262.318 357.641 263.055C358.7 264.095 360.571 262.757 359.775 261.53C359.733 261.466 359.694 261.404 359.651 261.34C360.225 261.084 360.61 260.469 360.381 259.804C360.505 259.743 360.614 259.653 360.711 259.556C360.753 259.57 360.796 259.581 360.839 259.595C362.228 260.023 362.966 258.372 362.158 257.488Z" fill="#F28168"/>
<path d="M420.855 2.37223C407.97 2.46934 395.08 2.52689 382.191 2.56286C381.849 2.04491 381.36 1.62049 380.759 1.44424C378.616 0.814798 376.291 0.1314 374.032 0.0091081C371.766 -0.113184 370.392 1.00903 369.456 2.59163C355.073 2.60962 340.685 2.59523 326.301 2.53768C316.944 2.50171 307.586 2.44416 298.233 2.37582C298.178 2.26792 298.128 2.16001 298.07 2.05211C297.507 0.980253 295.908 0.134995 294.604 0.498275C292.826 0.994638 290.928 1.52697 289.228 2.30389C270.071 2.14563 250.909 1.92981 231.751 1.64207C228.72 1.59531 225.689 1.54495 222.658 1.4946C222.014 0.519857 220.531 -0.203108 219.308 0.138592C218.004 0.501872 216.63 0.886733 215.318 1.37231C203.046 1.1565 190.778 0.922703 178.509 0.699699C175.164 0.638553 175.164 8.10917 178.509 8.1919C189.357 8.45807 200.205 8.68107 211.053 8.8753C211.658 11.224 212.256 13.5764 212.862 15.9251C212.233 16.1445 211.845 16.2884 211.814 16.3243C210.552 17.0617 209.528 18.0904 209 19.5219C208.313 21.3779 208.748 23.3669 209.019 25.2589C209.306 27.2551 209.64 29.2442 210.025 31.2224C210.646 34.4164 210.898 39.1822 214.08 41.2108C215.757 42.2791 217.768 42.1892 219.634 41.6748C221.889 41.0562 224.125 40.3368 226.349 39.6246C228.204 39.0311 230.055 38.4161 231.895 37.783C234.15 37.0061 236.545 36.4162 237.527 34.1466C238.175 32.6504 237.969 31.0749 237.496 29.5535C236.851 27.4889 236.126 25.4423 235.443 23.3885C234.845 21.5901 234.243 19.7917 233.645 17.9933C233.028 16.1445 232.404 14.2346 230.517 13.1519C229.194 12.393 227.626 12.3103 226.1 12.375C225.817 11.2888 225.565 10.1989 225.301 9.10909C241.218 9.35727 257.134 9.54431 273.051 9.70617C277.534 9.75293 282.017 9.7853 286.5 9.82486C287.051 11.9758 287.602 14.1267 288.157 16.2776C287.528 16.497 287.14 16.6409 287.109 16.6768C285.848 17.4142 284.827 18.4429 284.295 19.8744C283.608 21.7304 284.043 23.7194 284.315 25.6114C284.602 27.6076 284.936 29.5967 285.32 31.5749C285.941 34.7689 286.193 39.5347 289.376 41.5633C291.052 42.6316 293.063 42.5417 294.93 42.0273C297.185 41.4086 299.42 40.6893 301.644 39.9771C303.499 39.3836 305.351 38.7686 307.19 38.1355C309.445 37.3586 311.84 36.7687 312.822 34.4991C313.47 33.0028 313.264 31.4274 312.791 29.906C312.147 27.8414 311.421 25.7948 310.738 23.741C310.14 21.9426 309.538 20.1442 308.941 18.3458C308.324 16.497 307.699 14.5871 305.813 13.5044C304.489 12.7455 302.921 12.6628 301.396 12.7275C301.151 11.7995 300.934 10.8643 300.709 9.93277C322.548 10.0838 344.384 10.1522 366.223 10.1342C366.091 10.4543 365.959 10.7744 365.828 11.0981C365.175 10.9507 364.764 10.8679 364.721 10.8787C363.231 10.8284 361.76 11.1413 360.452 12.0477C358.752 13.2203 357.906 15.0942 356.978 16.7955C356 18.5939 355.069 20.4103 354.18 22.2483C352.748 25.2085 350.058 29.2765 351.452 32.618C352.185 34.3768 353.901 35.3516 355.756 35.9055C357.995 36.5745 360.277 37.1464 362.548 37.7219C364.442 38.2003 366.344 38.6607 368.249 39.0995C370.582 39.6354 372.922 40.4015 375.115 39.0383C376.559 38.1391 377.351 36.7328 377.886 35.2293C378.612 33.1863 379.257 31.1181 379.944 29.0643C380.541 27.2659 381.143 25.4675 381.74 23.6691C382.358 21.8203 383.002 19.9176 382.101 18.0364C381.473 16.72 380.227 15.8316 378.927 15.087C379.606 13.4181 380.363 11.7779 381.03 10.1054C394.304 10.073 407.582 10.0083 420.855 9.91119C424.224 9.91119 424.232 2.34705 420.855 2.37223Z" fill="#E3E0DA"/>
</svg>
