<svg width="346" height="325" viewBox="0 0 346 325" fill="none" xmlns="http://www.w3.org/2000/svg">
<path d="M334.91 150.021C334.843 142.936 334.693 135.84 334.269 128.767C334.269 128.761 334.268 128.756 334.268 128.749C334.285 128.554 334.29 128.357 334.28 128.159C334.137 124.953 331.814 122.751 328.673 122.545C300.069 120.673 307.97 121.371 279.353 122.585C250.851 123.794 222.357 125.506 193.822 125.663C177.715 125.752 161.597 125.336 145.533 124.105C142.629 123.881 139.85 126.823 139.977 129.669C140.122 132.886 142.422 134.98 145.533 135.233C146.371 135.301 147.209 135.367 148.047 135.43C148.068 135.489 148.093 135.548 148.115 135.606C148.03 136.386 147.913 137.166 147.849 137.918C147.715 139.47 147.587 141.025 147.465 142.58C147.22 145.687 146.998 148.798 146.795 151.909C146.389 158.132 146.056 164.359 145.781 170.59C145.23 183.052 144.902 195.524 144.639 207.997C144.578 210.928 144.416 213.885 144.634 216.813C144.831 219.446 145.239 222.148 146.281 224.57C143.937 225.221 141.991 227.361 142.106 229.912C142.24 232.896 144.54 235.483 147.643 235.457C175.363 235.221 203.082 234.782 230.798 234.34C258.371 233.901 285.946 233.288 313.495 231.976C328.95 231.24 307.808 230.28 323.23 229.019C326.145 228.78 328.98 226.608 328.837 223.404C328.821 223.057 328.772 222.706 328.692 222.359C329.45 221.768 330.14 220.951 330.586 220.189C331.372 218.842 331.48 217.453 331.644 215.939C331.98 212.845 332.292 209.748 332.578 206.65C333.154 200.395 333.625 194.131 333.989 187.859C334.724 175.264 335.032 162.641 334.91 150.021Z" fill="#C4C1BB"/>
<path d="M338.177 157.741C337.214 153.936 333.344 151.755 329.708 151.214C326.804 150.783 323.856 150.63 320.927 150.445C315.679 150.113 310.397 149.955 305.156 150.48C302.145 150.782 299.128 151.218 296.19 151.956C294.41 152.402 329.334 153.045 328.044 154.4C325.722 156.841 325.697 160.535 327.375 163.324C328.778 165.654 294.366 166.931 296.788 167.627C297.229 167.964 297.708 168.255 298.218 168.494C301.299 169.927 304.949 169.979 308.297 170.213C313.636 170.586 318.972 170.647 324.272 169.825C326.889 169.419 329.354 168.592 331.748 167.454C335.487 165.675 339.353 162.386 338.177 157.741Z" fill="#356B68"/>
<path d="M327.549 178.287C328.952 179.376 294.54 179.973 296.962 180.299C297.403 180.456 297.882 180.592 298.393 180.704C301.473 181.374 305.123 181.398 308.472 181.506C313.81 181.681 319.146 181.709 324.446 181.325C327.063 181.135 329.529 180.747 331.923 180.215C335.661 179.385 339.528 177.846 338.352 175.675C337.388 173.896 333.518 172.877 329.882 172.624C326.978 172.421 324.03 172.35 321.101 172.264C315.854 172.109 310.571 172.036 305.33 172.28C302.32 172.421 299.302 172.625 296.365 172.969C294.584 173.179 329.508 173.479 328.218 174.112C325.896 175.257 325.872 176.982 327.549 178.287ZM329.534 184.141C326.63 183.938 323.682 183.867 320.753 183.781C315.505 183.626 310.223 183.553 304.982 183.797C301.971 183.938 298.954 184.142 296.016 184.486C294.236 184.696 329.159 184.996 327.87 185.629C325.548 186.77 325.523 188.497 327.201 189.802C328.604 190.891 294.192 191.488 296.614 191.814C297.055 191.971 297.534 192.107 298.044 192.219C301.124 192.889 304.775 192.913 308.123 193.021C313.461 193.196 318.798 193.224 324.098 192.84C326.715 192.65 329.18 192.262 331.574 191.73C335.313 190.9 339.179 189.361 338.003 187.191C337.04 185.413 333.17 184.394 329.534 184.141Z" fill="#27374D"/>
<path d="M341.777 73.1531C341.752 70.0422 339.224 67.6397 336.17 67.5385C319.261 66.9732 226.961 66.5719 222.217 66.8022C221.06 66.8581 219.904 66.9174 218.747 66.9785C217.396 67.05 215.94 67.036 214.649 67.4495C211.501 68.4597 209.713 71.5619 210.34 74.7722C210.38 86.3066 210.433 97.841 210.481 109.374C210.532 121.229 210.577 133.085 210.626 144.94C210.675 156.738 210.725 168.534 210.772 180.332C210.819 192.13 210.868 203.928 210.919 215.726C210.943 221.654 210.969 227.583 210.994 233.511C211.001 234.965 211.004 236.418 211.013 237.872C211.025 240.421 211.051 239.255 212.694 241.221C215.114 244.118 333.592 242.987 335.634 242.753C337.101 242.586 338.547 242.258 339.601 241.108C340.597 240.021 341.273 238.646 341.244 237.135C340.832 216.287 340.536 195.431 340.921 174.58C341.116 164.129 341.796 75.73 341.777 73.1531ZM308.395 186.207C308.484 179.479 308.574 172.749 308.663 166.022C308.693 163.715 308.724 161.409 308.754 159.102C308.933 157.363 309.121 155.623 309.325 153.885C309.449 157.823 309.561 161.763 309.656 165.701C309.104 173.353 308.672 181.012 308.362 188.679C308.376 187.854 308.384 187.028 308.395 186.207ZM251.966 195.816C253.679 195.152 255.277 194.323 256.456 192.863C257.658 191.374 258.486 189.851 259.047 188.004C259.483 186.566 259.706 185.06 259.85 183.541C260.512 184.087 261.282 184.495 262.028 184.701C263.025 184.969 264.021 184.969 265.016 184.701C265.969 184.434 266.795 183.951 267.497 183.253C268.413 182.536 269.217 181.522 269.755 180.498C270.565 178.957 270.853 177.579 271.053 175.869C271.21 174.534 270.313 172.796 269.407 171.889C269.018 171.5 268.528 171.149 267.994 170.872C266.023 152.589 267.182 134.151 266.988 115.796C266.974 114.481 266.953 113.167 266.922 111.851C268.147 112.495 269.582 112.724 270.928 112.287C273.429 111.476 274.834 109.442 275.051 106.863C275.079 106.539 275.105 106.214 275.133 105.889C275.315 106.174 275.503 106.457 275.7 106.73C277.048 108.613 278.9 109.738 281.297 109.416C283.369 109.136 285.524 107.554 285.968 105.385C285.989 105.282 286.009 105.179 286.029 105.078C286.345 105.322 286.671 105.548 287.005 105.752C281.101 119.273 276.104 133.191 272.178 147.419C270.928 151.956 269.79 156.522 268.744 161.11C268.095 163.961 269.616 167.311 272.652 168.004C275.499 168.653 278.839 167.147 279.536 164.09C282.034 153.118 285.146 142.283 288.841 131.652C288.735 132.68 288.629 133.707 288.524 134.737C288.436 135.608 288.768 136.628 289.261 137.49C289.253 138.113 289.244 138.736 289.233 139.357C289.028 151.828 288.627 164.294 288.155 176.759C287.89 183.774 287.601 190.788 287.314 197.802C287.193 200.747 289.984 203.563 292.934 203.43C293.859 203.389 294.807 203.179 295.635 202.748C295.649 203.581 295.664 204.415 295.683 205.247C295.748 208.059 297.774 210.402 300.558 210.776C303.219 211.133 306.079 209.483 306.728 206.742C307.458 203.654 307.848 200.52 308.067 197.371C307.921 202.516 307.83 207.665 307.792 212.812C306.468 212.814 305.146 212.815 303.821 212.812C303.402 212.718 302.971 212.653 302.539 212.606C286.209 210.795 269.758 210.106 253.334 210.568C251.817 210.61 250.299 210.668 248.782 210.729C249.005 205.795 249.207 200.857 249.404 195.921C250.261 196.131 251.156 196.131 251.966 195.816Z" fill="#FFFFF7"/>
<path d="M325.513 213.62C325.075 208.991 324.497 204.374 323.798 199.779C323.471 197.624 323.11 195.475 322.722 193.33C322.434 191.744 320.627 190.806 319.162 191.003C317.481 191.23 316.495 192.561 316.35 194.194C316.04 197.692 315.73 201.19 315.422 204.69C315.265 206.468 315.106 208.246 314.949 210.024C314.878 210.826 314.806 211.629 314.737 212.433C314.702 212.835 314.665 213.236 314.631 213.637C314.611 213.852 314.575 214.07 314.573 214.285C314.573 214.298 314.573 214.307 314.573 214.318C314.57 214.326 314.568 214.333 314.564 214.344C314.564 214.346 314.563 214.349 314.563 214.353C314.402 214.389 314.24 214.443 314.082 214.483C313.674 214.585 313.261 214.67 312.848 214.752C312.035 214.918 311.217 215.059 310.395 215.181C310.285 215.197 310.174 215.213 310.064 215.228C309.979 215.239 309.82 215.26 309.778 215.263C309.284 215.317 308.79 215.375 308.296 215.422C304.926 215.738 301.536 215.766 298.154 215.68C291.298 215.508 284.461 215.026 277.6 215.009C270.541 214.991 263.483 215.246 256.435 215.645C250.008 216.01 243.588 216.499 237.169 217.013C237.967 210.978 238.537 204.917 238.772 198.831C238.814 197.729 238.145 196.661 237.206 196.075C237.45 193.674 237.734 191.277 238.039 188.883C238.108 188.332 238.182 187.779 238.253 187.227C238.293 186.92 238.335 186.615 238.375 186.308C238.382 186.255 238.391 186.187 238.403 186.104C238.568 184.889 238.736 183.675 238.905 182.462C239.244 180.035 239.589 177.608 239.924 175.18C240.593 170.319 241.232 165.451 241.694 160.566C242.201 155.206 242.487 149.827 242.391 144.443C242.361 142.82 241.178 141.468 239.579 141.254C238.124 141.058 236.286 141.983 236.021 143.579C235.662 145.737 235.317 147.897 234.986 150.061C235.059 147.744 235.114 145.425 235.14 143.106C235.19 138.764 235.154 134.419 234.997 130.079C234.845 125.863 234.486 121.658 234.328 117.445C234.249 115.349 234.232 113.251 234.356 111.155C234.385 110.647 234.424 110.14 234.471 109.632C234.492 109.407 234.514 109.182 234.54 108.957C234.533 109.023 234.6 108.51 234.619 108.334C234.648 108.151 234.694 107.856 234.692 107.866C234.722 107.688 234.753 107.512 234.784 107.334C234.866 106.889 234.957 106.448 235.058 106.008C235.241 105.213 235.455 104.426 235.704 103.649C235.842 103.218 235.99 102.789 236.15 102.365C236.215 102.196 236.281 102.028 236.347 101.859C236.361 101.824 236.373 101.795 236.384 101.767C236.401 101.732 236.42 101.688 236.445 101.636C236.786 100.901 237.145 100.179 237.551 99.4794C237.73 99.1706 237.919 98.8653 238.114 98.5669C238.236 98.3802 238.359 98.1953 238.488 98.0138C238.518 97.972 238.687 97.7399 238.786 97.6038C238.886 97.4817 239.035 97.2933 239.035 97.2933C239.149 97.1572 239.265 97.0228 239.384 96.8902C239.649 96.5919 239.924 96.304 240.208 96.0231C240.494 95.7439 240.786 95.4735 241.091 95.2135C241.152 95.1612 241.213 95.1123 241.274 95.0617C241.253 95.0844 241.644 94.7826 241.708 94.7372C243.083 93.7619 243.868 91.8706 242.867 90.3143C241.987 88.9465 239.924 88.109 238.45 89.1541C231.746 93.905 228.752 101.681 228.005 109.632C227.59 114.046 227.881 118.485 228.158 122.897C228.439 127.345 228.62 131.794 228.672 136.25C228.878 154.116 227.315 171.933 226.202 189.747C225.644 198.66 225.198 207.585 225.139 216.518C225.113 220.414 225.31 224.854 228.946 227.201C230.89 228.457 233.275 228.413 235.499 228.452C237.755 228.49 240.009 228.523 242.266 228.549C260.312 228.761 278.362 228.569 296.398 227.974C300.907 227.825 305.416 227.651 309.923 227.452C312.118 227.354 314.315 227.262 316.51 227.143C318.512 227.037 320.551 226.801 322.335 225.812C326.863 223.308 325.917 217.91 325.513 213.62Z" fill="#F2EFE9"/>
<path d="M322.844 100.875C322.906 97.918 323.427 94.5175 322.237 91.7224C320.993 88.8035 318.084 87.7444 315.129 87.5316C312.078 87.3135 308.959 87.5141 305.904 87.5316C299.314 87.5717 292.725 87.6101 286.136 87.6502C272.9 87.7287 259.662 87.802 246.426 87.8927C244.807 87.9032 238.882 88.5488 238.133 88.896C234.434 90.6093 234.432 95.2695 234.155 98.7729C233.551 106.427 234.68 153.067 234.375 168.716C234.223 176.57 234.084 184.427 234.08 192.283C234.079 196.153 234.11 200.021 234.188 203.889C234.228 205.852 234.14 214.056 235.065 215.743C236.124 217.676 238.162 217.964 240.156 218.029C242.067 218.09 243.978 218.147 245.889 218.201C249.829 218.313 253.768 218.413 257.707 218.496C265.586 218.664 273.468 218.769 281.348 218.793C289.171 218.817 294.931 218.856 302.752 218.707C306.691 218.632 310.63 218.533 314.568 218.407C316.327 218.352 318.439 218.573 320.115 217.98C322.392 217.172 322.746 214.927 322.852 212.803C322.952 210.854 322.695 182.134 322.589 170.516C322.465 157.225 322.772 104.182 322.844 100.875Z" fill="white"/>
<path d="M159.616 222.67C159.585 217.041 159.548 211.411 159.494 205.783C159.384 194.466 159.142 183.153 158.788 171.842C158.076 149.046 157.05 126.252 156.969 103.44C156.924 90.5953 157.203 67.6696 156.25 66.6698C155.915 65.9039 155.455 65.192 154.83 64.557C153.138 62.8419 150.878 62.3568 148.629 61.8631C146.875 61.4775 44.6874 33.9683 43.9295 34.0172C38.3995 34.3678 10.7271 34.2719 10.4048 34.2858C8.17297 34.3853 6.17634 36.1283 6.21989 38.4767C6.814 70.3861 7.2548 101.875 7.43425 133.79C7.61196 165.54 7.56841 197.293 7.30707 229.043C7.15897 246.883 6.94293 264.721 6.65546 282.558C6.61713 284.908 8.61725 286.674 10.863 286.771C22.3463 287.27 33.8296 287.769 45.3128 288.268C46.0132 288.298 46.6631 288.13 47.2311 287.82C48.6632 287.597 50.0222 287.115 51.3829 286.546C55.6201 284.777 153.811 247.982 155.84 245.857C157.03 244.613 157.715 243.184 158.137 241.66C158.323 241.314 158.461 240.948 158.523 240.566C159.496 234.626 159.647 228.673 159.616 222.67Z" fill="#FFFCF5"/>
<path d="M44.1316 81.4545C43.9452 65.8165 43.4922 50.1732 42.5897 34.5579C42.6019 34.3991 42.6141 34.2403 42.6263 34.0815C34.8836 34.3537 10.8177 34.2717 10.5181 34.2839C8.28622 34.3834 6.28959 36.1264 6.33314 38.4748C6.92726 70.3842 7.36805 101.873 7.54576 133.788C7.72347 165.538 7.67991 197.291 7.41857 229.041C7.27048 246.881 7.05444 264.719 6.76697 282.556C6.72864 284.906 8.72876 286.672 10.9745 286.769C22.0118 287.249 33.0473 287.729 44.0846 288.207C44.1264 284.655 44.1664 281.101 44.1995 277.548C44.318 264.828 44.3755 252.107 44.372 239.384C44.3685 226.724 44.3041 214.065 44.1804 201.407C44.0584 188.749 44.4051 104.516 44.1316 81.4545Z" fill="#F2EFE9"/>
<path d="M140.639 221.743C139.076 220.305 136.773 219.911 134.891 221C132.576 222.34 130.212 223.593 127.8 224.749C126.696 225.28 125.581 225.789 124.457 226.278C124.406 226.3 124.312 226.342 124.211 226.388C123.953 226.499 123.692 226.602 123.433 226.709C122.762 226.983 122.089 227.249 121.413 227.509C116.472 229.408 111.385 230.924 106.212 232.035C103.919 232.529 101.522 233.112 99.168 233.326C98.999 233.337 98.7028 233.356 98.5774 233.372C98.2464 233.414 97.9136 233.452 97.5826 233.49C97.0285 233.553 96.4745 233.613 95.9204 233.665C94.6904 233.784 93.4586 233.881 92.2268 233.979C87.5454 234.352 82.8047 234.705 78.2242 235.8C75.9192 236.352 73.6351 237.139 71.4939 238.199C71.642 235.785 71.7883 233.372 71.9381 230.957C72.0828 228.605 70.0251 226.595 67.8334 226.3C67.5111 226.257 67.18 226.252 66.8472 226.279C67.9153 212.397 68.9641 198.514 69.8875 184.62C70.513 175.225 71.081 165.826 71.5583 156.422C72.0322 147.112 72.5967 137.764 72.243 128.44C71.8824 118.924 70.06 109.601 68.6958 100.202C68.6278 99.7341 68.5634 99.2647 68.4972 98.7971C68.4972 98.7919 68.4954 98.7902 68.4954 98.7849C68.4588 98.4883 68.4188 98.1917 68.3822 97.8934C68.2358 96.707 68.1034 95.5205 67.9919 94.3306C67.7863 92.1427 67.6504 89.9479 67.6191 87.7512C67.586 85.5023 67.6644 83.2516 67.8874 81.0131C67.9118 80.7688 67.9396 80.5246 67.9658 80.2803C67.9606 80.296 67.9553 80.3082 67.9484 80.3239C67.9553 80.3065 67.9606 80.2873 67.9658 80.2698C67.971 80.2227 67.9762 80.1756 67.9815 80.1285C67.9971 79.9663 68.0442 79.8424 68.0755 79.8022C68.1296 79.4411 68.1435 79.0485 68.1975 78.7345C68.2289 78.5548 68.6035 76.8746 68.7986 76.1767C68.8178 76.1401 68.8369 76.1052 68.8578 76.0685C71.1001 76.6286 73.7797 74.842 74.278 72.6471C74.893 69.941 73.4522 67.7898 70.9816 66.8337C68.0459 65.6978 64.5875 66.9209 62.4132 69.0146C60.5054 70.8518 59.5715 73.4916 59.1168 76.0423C58.2474 80.9084 58.007 85.8425 58.2753 90.7731C58.5541 95.8538 60.0733 210.027 58.5575 229.675C58.183 234.525 57.8101 239.375 57.4425 244.226C57.277 246.41 57.162 248.472 57.6516 250.639C58.2788 253.42 60.1064 255.655 62.7721 256.664C65.7862 257.805 68.6383 256.362 71.3196 255.092C73.4051 254.104 133.55 241.684 139.329 234.672C140.73 232.972 140.495 229.521 141.383 227.501C142.211 225.609 142.301 223.272 140.639 221.743ZM68.7742 75.8836C68.7829 75.8958 68.8178 75.8888 68.8979 75.8522C68.9066 75.8487 68.9118 75.8452 68.9205 75.8417C68.9467 75.8347 68.9711 75.826 68.9955 75.819C68.9989 75.8138 69.0042 75.8068 69.0094 75.8016H69.0111C69.0129 75.7998 69.0146 75.7981 69.0146 75.7946C69.0355 75.7684 69.0599 75.7388 69.0913 75.7039C69.1174 75.6742 69.1401 75.6498 69.1592 75.6271C69.1279 75.6847 69.1 75.7318 69.0739 75.7719C69.3004 75.6725 69.2429 75.7196 69.1 75.7859C69.1348 75.7754 69.1558 75.7684 69.154 75.7702C69.1157 75.7876 69.0808 75.8016 69.046 75.8155C68.9746 75.9167 68.9327 75.9446 68.9415 75.9115C68.9432 75.908 68.9449 75.9045 68.9467 75.9028C68.9589 75.8818 68.9746 75.8592 68.9885 75.8365C68.9868 75.8365 68.985 75.8382 68.9833 75.8382H68.9815C68.8822 75.8749 68.7934 75.8993 68.7202 75.915C68.6871 75.9185 68.6557 75.9185 68.6348 75.9115C68.6435 75.9167 68.701 75.9045 68.7742 75.8836Z" fill="#F2EFE9"/>
<path d="M68.9868 75.8365C69.0059 75.8295 69.0251 75.8226 69.0443 75.8156C69.046 75.8138 69.046 75.8121 69.0477 75.8104C69.0669 75.8016 69.0826 75.7947 69.1 75.7859C69.0861 75.7894 69.0721 75.7947 69.0547 75.7999C69.0617 75.7912 69.0669 75.7807 69.0739 75.772C69.0547 75.7807 69.0355 75.7894 69.0112 75.7999C69.0077 75.8051 69.0042 75.8121 68.999 75.8173C68.9972 75.8173 68.9955 75.8173 68.9955 75.8191C68.9903 75.8261 68.9868 75.8313 68.9815 75.8383C68.9815 75.8383 68.985 75.8383 68.9868 75.8365Z" fill="#F2EFE9"/>
<path d="M67.9623 80.2802C68.1243 79.8597 68.1156 79.7446 68.072 79.8022C68.0477 79.9697 68.0128 80.1284 67.964 80.2698C67.9623 80.2732 67.9623 80.2767 67.9623 80.2802Z" fill="#F2EFE9"/>
<path d="M140.575 83.611C137.932 82.4438 112.211 75.7841 101.346 73.2822C95.6469 71.9701 89.4653 69.8834 83.7664 68.5714C80.8882 67.9084 78.0099 67.2454 75.1317 66.5824C72.6908 66.0206 70.0495 65.2337 67.5529 65.9526C66.8925 66.1427 66.3158 66.4306 65.8019 66.8022C65.1015 67.0971 64.537 67.6537 64.2757 68.3673C63.7809 69.0529 63.7948 70.0091 64.1398 70.8047C64.4325 92.8162 64.7252 114.826 65.0196 136.838C65.3193 159.359 65.6189 181.878 65.9186 204.399C66.0876 217.052 66.2549 229.706 66.4239 242.359C66.4396 243.507 67.248 244.697 68.4066 244.967C71.6019 245.709 74.7798 245.36 77.9699 244.775C81.0502 244.21 84.1201 243.578 87.1899 242.963C93.314 241.734 99.4293 240.468 105.538 239.163C111.589 237.868 117.633 236.537 123.668 235.165C126.741 234.467 129.813 233.759 132.881 233.042C135.294 232.478 137.902 231.941 139.942 230.446C141.406 229.373 142.481 228.045 143.082 226.313C143.625 224.748 143.646 223.029 143.676 221.389C143.709 219.456 143.742 217.521 143.777 215.588C143.909 214.387 143.974 213.182 144.005 211.997C144.131 207.276 144.094 202.546 144.131 197.823C144.206 188.204 144.28 178.584 144.355 168.965L144.582 139.76C144.657 130.181 144.033 95.7648 144.033 90.3806C144.031 86.0187 141.81 84.1571 140.575 83.611ZM71.7935 239.998C71.7935 239.935 71.7918 239.871 71.7918 239.808C71.8667 239.874 71.9451 239.939 72.0235 240.002C71.9486 240 71.8702 240.002 71.7935 239.998ZM134.095 227.175C134.118 227.079 134.132 226.983 134.144 226.887C134.32 226.939 134.498 226.981 134.679 227.005C134.485 227.066 134.29 227.12 134.095 227.175Z" fill="white"/>
<path opacity="0.25" d="M191.653 287.068C190.55 285.382 188.316 284.423 186.483 283.796C184.661 283.172 182.715 282.901 180.798 282.771C179.246 282.664 177.683 282.645 176.117 282.676C173.655 282.577 171.186 282.657 168.714 282.84C164.484 283.156 160.203 283.512 156.023 284.25C154.034 284.601 152.061 285.082 150.169 285.801C148.218 286.543 145.781 287.729 145.781 290.182C145.781 292.928 148.843 293.698 151.032 293.796C153.185 293.893 155.36 293.79 157.513 293.714C161.815 293.56 166.108 293.344 170.413 293.431C174.659 293.516 178.911 293.754 183.156 293.495C185.232 293.37 187.499 293.263 189.506 292.686C191.984 291.972 193.1 289.28 191.653 287.068ZM150.009 289.116C149.899 289.087 149.791 289.052 149.683 289.013C149.812 288.994 149.92 289.029 150.009 289.116Z" fill="#C4C1BB"/>
<path opacity="0.25" d="M247.971 274.312C245.349 271.058 240.692 270.345 236.784 270.065C235.356 269.964 233.936 269.983 232.521 270.081C228.2 268.83 223.559 269.497 219.163 269.935C216.921 270.158 214.68 270.414 212.445 270.704C210.305 270.981 208.018 271.109 205.995 271.918C202.594 273.279 196.773 278.564 201.782 281.713C205.432 284.009 210.222 283.325 214.278 283.041C223.479 282.395 232.7 283.306 241.908 282.889C244.062 282.792 246.423 282.591 247.978 280.895C249.778 278.929 249.585 276.315 247.971 274.312Z" fill="#C4C1BB"/>
<path d="M215.595 249.244C215.198 245.074 215.179 240.885 215.541 236.711C215.581 236.249 215.285 235.942 214.914 235.823C214.661 235.162 213.75 234.888 213.318 235.375C213.131 235.31 212.921 235.303 212.722 235.352C212.227 234.892 211.217 234.946 211.1 235.752C211.053 236.073 211.011 236.396 210.967 236.718C210.483 236.518 209.826 236.722 209.64 237.317C209.392 237.287 209.128 237.346 208.917 237.496C208.368 237.263 207.549 237.544 207.497 238.336C207.314 241.101 207.425 243.849 207.779 246.593C207.779 246.599 207.779 246.602 207.777 246.607C207.779 246.607 207.779 246.607 207.781 246.607C207.791 246.693 207.8 246.778 207.812 246.862C207.889 247.427 208.328 247.612 208.765 247.537C208.824 247.68 208.903 247.82 209.004 247.953C209.384 248.45 210.009 248.516 210.413 248.214C210.567 248.457 210.8 248.572 211.048 248.588C211.387 249.492 212.811 249.378 212.901 248.263C212.914 248.11 212.928 247.954 212.94 247.801C212.968 247.981 212.995 248.16 213.027 248.34C213.09 248.698 213.34 248.909 213.64 248.989C213.647 249.073 213.654 249.158 213.661 249.244C213.781 250.472 215.713 250.484 215.595 249.244Z" fill="#F28168"/>
<path d="M213.804 278.159C213.804 278.145 213.804 278.133 213.804 278.119C214.867 272.393 215.004 266.429 215.659 260.642C215.989 257.737 216.313 254.862 215.95 251.943C215.771 250.497 215.466 249.069 215.151 247.647C214.875 246.409 214.149 244.648 214.602 243.409C215.025 242.253 213.94 241.843 213.513 242.994C213.502 243.024 213.494 243.054 213.483 243.085C213.353 243.041 213.21 243.024 213.069 243.031C213.067 242.949 213.065 242.867 213.063 242.783C213.03 241.59 211.229 241.429 211.143 242.57C210.832 242.464 210.464 242.532 210.194 242.752C209.994 241.919 208.657 241.626 208.366 242.635C206.957 247.515 208.687 252.402 209.431 257.231C210.314 262.97 210.87 268.776 211.574 274.541C211.71 275.657 211.905 276.805 211.887 277.943C211.799 278.417 213.793 278.562 213.804 278.159Z" fill="#F28168"/>
<path d="M207.333 278.669C208.128 278.15 208.861 277.664 209.678 277.182C210.262 276.838 210.84 276.465 211.516 276.341C212.154 276.224 213.87 276.287 213.955 276.29C214.786 276.315 214.764 277.828 214.8 278.663C214.867 280.171 213.421 279.939 212.34 280.028C210.701 280.162 209.143 280.439 207.502 280.481C207.075 280.492 206.338 280.523 206.096 280.258C205.955 280.104 205.469 279.883 207.333 278.669Z" fill="#27374D"/>
<path d="M227.007 276.116C227.002 276.104 226.996 276.092 226.991 276.08C225.65 270.413 223.364 264.903 221.623 259.346C220.75 256.556 219.883 253.796 218.372 251.273C217.623 250.024 216.767 248.841 215.905 247.668C215.154 246.648 213.776 245.332 213.689 244.017C213.607 242.787 212.45 242.851 212.525 244.079C212.527 244.111 212.532 244.142 212.534 244.174C212.396 244.186 212.26 244.228 212.133 244.292C212.098 244.217 212.063 244.142 212.028 244.069C211.516 242.992 209.804 243.575 210.187 244.653C209.858 244.683 209.551 244.894 209.392 245.203C208.873 244.523 207.532 244.796 207.675 245.836C208.359 250.87 211.917 254.637 214.55 258.751C217.679 263.64 220.532 268.726 223.507 273.71C224.083 274.677 224.726 275.647 225.167 276.694C225.278 277.165 227.16 276.49 227.007 276.116Z" fill="#F28168"/>
<path d="M221.327 279.316C221.817 278.503 222.264 277.744 222.79 276.953C223.165 276.39 223.524 275.8 224.078 275.395C224.601 275.013 226.172 274.321 226.251 274.286C227.008 273.946 227.646 275.315 228.043 276.051C228.759 277.379 227.357 277.801 226.423 278.353C225.007 279.188 223.724 280.118 222.266 280.872C221.886 281.068 221.236 281.418 220.904 281.286C220.714 281.211 220.179 281.223 221.327 279.316Z" fill="#27374D"/>
<path d="M162.689 287.493C163.081 284.131 165.21 268.286 165.54 268.486C165.973 268.748 166.392 269.538 166.846 269.69C167.108 269.535 167.519 269.603 167.62 269.924C167.771 269.966 167.923 270.008 168.076 270.051C168.08 270.053 168.083 270.053 168.087 270.055C168.317 269.774 168.803 269.896 168.972 270.214C169.031 270.325 169.08 270.44 169.122 270.556C169.275 270.681 169.411 270.829 169.524 271.013C169.547 271.049 169.564 271.086 169.578 271.123C169.73 271.215 169.829 271.383 169.786 271.615C169.55 272.886 167.801 279.785 167.332 280.963C166.656 283.109 165.946 285.265 165.092 287.333C164.77 288.116 164.149 288.928 163.198 288.805C162.224 288.678 162.588 288.352 162.689 287.493Z" fill="#C67F60"/>
<path d="M158.395 287.769C159.229 287.321 160.003 286.895 160.856 286.485C161.466 286.192 162.074 285.867 162.757 285.803C163.402 285.74 165.106 285.948 165.193 285.958C166.019 286.052 165.869 287.556 165.836 288.394C165.777 289.901 164.355 289.549 163.269 289.547C161.625 289.542 160.048 289.688 158.41 289.591C157.985 289.566 157.246 289.535 157.029 289.25C156.901 289.085 156.436 288.823 158.395 287.769Z" fill="#27374D"/>
<path d="M183.809 288.007C183.238 284.671 180.814 268.869 181.187 268.966C181.676 269.095 182.3 269.734 182.779 269.751C182.987 269.528 183.4 269.477 183.586 269.757C183.743 269.755 183.9 269.751 184.06 269.75C184.063 269.75 184.067 269.75 184.07 269.75C184.211 269.416 184.713 269.395 184.964 269.652C185.053 269.743 185.131 269.839 185.205 269.938C185.386 270.015 185.56 270.12 185.72 270.263C185.752 270.291 185.78 270.322 185.802 270.352C185.973 270.399 186.116 270.53 186.14 270.765C186.274 272.051 186.539 279.164 186.421 280.427C186.377 282.676 186.302 284.948 186.067 287.171C185.978 288.014 185.612 288.966 184.664 289.118C183.696 289.275 183.955 288.86 183.809 288.007Z" fill="#C67F60"/>
<path d="M179.22 288.111C180.039 287.633 180.795 287.181 181.635 286.74C182.234 286.424 182.83 286.08 183.511 285.99C184.154 285.904 185.863 286.051 185.95 286.058C186.78 286.122 186.684 287.631 186.68 288.469C186.673 289.978 185.241 289.676 184.157 289.713C182.515 289.767 180.943 289.969 179.304 289.931C178.877 289.92 178.138 289.917 177.91 289.639C177.776 289.479 177.3 289.233 179.22 288.111Z" fill="#27374D"/>
<path d="M186.586 225.215C186.088 221.082 185.4 216.971 184.476 212.924C184.145 211.475 182.65 211.577 182.061 212.514C182.034 212.269 182.007 212.025 181.978 211.781C181.776 210.092 179.614 209.591 179.269 211.428C179.178 211.913 179.101 212.398 179.035 212.885C178.967 212.887 178.899 212.889 178.833 212.89C178.742 212.507 178.648 212.123 178.549 211.739C178.249 210.591 176.821 210.306 176.195 211.071C176.019 211.198 175.859 211.385 175.727 211.641C175.64 211.61 175.549 211.587 175.45 211.577C175.26 211.556 175.072 211.58 174.896 211.641C174.779 210.265 172.84 209.628 172.249 210.973C172.131 210.856 171.988 210.758 171.815 210.689C171.16 210.42 170.394 210.682 170.049 211.385C169.948 211.591 169.855 211.8 169.766 212.009C169.515 212.102 169.282 212.255 169.071 212.498C169.148 211.69 168.801 210.893 168.031 210.683C167.345 210.497 166.43 210.985 166.318 211.824C165.804 215.689 163.456 219.93 162.951 224.899C161.25 241.638 161.51 263.133 160.562 276.249C160.475 277.454 160.389 278.66 160.308 279.866C160.233 280.961 160.039 282.165 160.792 283.046C161.487 283.857 162.461 283.863 163.402 283.929C164.526 284.009 165.648 284.088 166.771 284.168C167.437 284.215 167.921 283.589 168.12 282.971C170.597 275.237 173.474 261.823 175.869 248.963C177.072 259.417 178.368 269.599 179.736 277.144C179.95 278.328 180.168 279.513 180.387 280.698C180.586 281.772 180.703 282.989 181.61 283.624C182.448 284.21 183.346 283.939 184.227 283.739C185.279 283.5 186.332 283.259 187.384 283.02C188.008 282.879 188.301 282.137 188.33 281.488C189.025 266.944 188.342 239.775 186.586 225.215Z" fill="#B38740"/>
<path d="M172.679 164.956C172.922 164.506 173.158 164.076 173.375 163.637C173.735 160.435 174.462 157.338 177.758 156.302C179.688 155.695 183.748 155.262 185.215 156.747C186.597 158.146 187.351 160.133 187.544 162.07C187.856 165.179 186.705 168.667 184.445 170.921C184.236 171.647 184.095 172.394 183.983 173.137C183.687 175.119 184.063 178.231 184.063 180.231C184.063 180.882 183.37 180.374 182.774 180.611C182.635 181.381 181.777 181.826 181.028 181.751C180.906 181.841 180.777 181.915 180.645 181.965C177.995 182.951 177.645 183.703 177.493 182.155L177.605 173.95C176.331 173.418 175.22 173.449 174.382 172.303C173.496 171.094 173.178 169.225 173.132 167.505C172.712 167.402 172.289 167.215 172.11 166.796C171.812 166.114 172.374 165.521 172.679 164.956Z" fill="#C67F60"/>
<path d="M189.987 160.665C189.558 159.325 188.924 158.512 187.834 157.706C187.199 157.237 186.518 156.872 185.851 156.459C185.232 156.077 185.102 155.415 184.583 154.913C183.617 153.978 182.342 153.903 181.136 154.332C180.952 154.398 180.459 154.655 180.241 154.529C180.028 154.407 180.096 153.901 180.03 153.695C179.852 153.144 179.366 152.723 178.817 152.563C177.657 152.223 176.085 152.854 175.406 153.819C175.22 154.082 175.098 154.479 174.868 154.702C174.573 154.988 174.099 155 173.753 155.213C173.219 155.541 172.901 156.122 172.768 156.722C172.488 157.991 172.962 159.345 173.857 160.257C174.749 161.273 175.098 161.85 175.328 162.581C175.483 163.073 175.592 163.577 175.896 164.006C176.214 164.458 176.671 164.708 177.204 164.816C177.978 164.973 178.601 164.8 178.99 165.645C179.31 166.343 179.291 167.147 179.455 167.887C179.589 168.49 179.823 169.073 180.143 169.604C180.828 170.736 181.837 171.603 182.873 172.4C183.234 172.678 183.661 172.489 183.898 172.167C185.069 171.069 186.128 169.869 187.18 168.66C188.147 167.548 189.133 166.409 189.811 165.092C190.475 163.797 190.447 162.105 189.987 160.665Z" fill="#27374D"/>
<path d="M188.389 192.448C187.966 184.148 184.353 178.09 184.335 178.031C183.814 176.277 181.403 176.038 179.556 177.131C175.932 179.275 173.561 182.311 172.012 185.73C170.653 188.733 167.82 203.171 166.75 209.023C165.278 211.671 163.93 214.381 162.994 217.277C162.254 219.568 161.588 222.588 163.898 224.205C164.186 224.406 164.576 224.354 164.869 224.205C166.754 223.244 168.5 222.071 170.117 220.74C173.141 220.906 176.669 220.784 177.765 220.786C179.682 220.791 184.319 220.78 185.955 219.578C191.423 215.56 188.7 198.512 188.389 192.448Z" fill="#FFFCF5"/>
<path d="M220.1 238.995C219.879 238.351 219.482 237.819 219.093 237.28C219.093 234.569 219.093 231.857 219.093 229.146C219.093 228.829 218.966 228.593 218.778 228.44C218.769 227.407 218.715 226.374 218.616 225.343C218.856 223.024 218.776 220.672 218.358 218.376C218.24 217.73 218.058 217.022 217.781 216.373C218.585 215.358 217.954 213.854 216.818 213.119C216.675 213.027 216.529 212.945 216.379 212.866C217.119 212.336 217.255 211.041 216.145 210.748C214.476 210.308 212.767 210.017 211.042 209.93C209.669 209.86 207.399 209.518 206.755 211.116C206.458 211.849 206.425 212.733 206.262 213.505C206.079 214.372 205.873 215.232 205.65 216.089C205.194 217.84 204.655 219.568 204.342 221.354C203.718 224.894 203.544 228.544 203.193 232.119L202.66 237.561C202.589 238.29 202.437 239.061 202.643 239.779C202.873 240.579 203.54 241.052 204.246 241.417C207.669 243.184 218.51 242.46 219.281 241.956C220.262 241.312 220.461 240.045 220.1 238.995ZM218.36 240.12C218.322 240.246 218.226 240.339 218.093 240.408C218.109 240.244 218.095 240.077 218.055 239.92C218.166 239.932 218.278 239.925 218.386 239.902C218.386 239.977 218.381 240.051 218.36 240.12Z" fill="#627A94"/>
<path d="M212.994 210.28C212.764 207.88 212.117 205.608 211.034 203.453C210.924 203.237 210.758 203.103 210.57 203.035C210.546 202.816 210.52 202.598 210.49 202.38C210.398 201.714 209.783 201.583 209.274 201.777C209.518 201.073 209.762 200.37 209.992 199.667C210.375 198.493 208.54 197.998 208.15 199.16C207.596 200.807 207.053 202.459 206.504 204.108C206.07 205.413 205.457 206.829 205.509 208.229C205.556 209.499 206.262 210.462 207.506 210.776C208.943 211.137 210.556 211.109 212.028 211.247C212.515 211.292 213.039 210.765 212.994 210.28Z" fill="white"/>
<path d="M208.002 174.576C208.725 175.797 210.715 176.288 211.995 176.506L211.957 176.855C214.083 176.276 215.361 176.53 217.525 176.169C217.698 175.499 215.823 173.699 216.079 173.053C218.548 171.029 222.108 168.801 222.101 165.676C222.095 163.731 221.264 162.171 220.024 160.644C218.708 159.024 214.719 158.893 212.738 159.308C209.358 160.018 208.514 162.701 207.845 165.854C207.589 166.269 207.312 166.674 207.026 167.098C206.668 167.632 206.051 168.166 206.277 168.874C206.415 169.309 206.819 169.534 207.227 169.679C207.105 171.395 207.241 173.287 208.002 174.576Z" fill="#F28168"/>
<path d="M220.755 179.406C220.208 177.584 218.82 175.086 218.027 173.357C217.907 173.093 217.7 172.952 217.466 172.903C217.24 172.673 216.924 172.585 216.626 172.615C216.135 171.91 214.922 172.184 214.82 172.938C214.804 172.943 214.788 172.95 214.774 172.957C214.208 172.744 213.492 173.025 213.44 173.618C213.267 173.657 213.11 173.733 212.987 173.845C212.563 173.801 212.124 174.063 211.934 174.531C211.799 174.864 211.779 175.19 211.835 175.506C211.818 175.677 211.849 175.86 211.945 176.049C212.394 176.923 214.091 180.63 214.842 181.456C215.208 181.859 220.789 179.515 220.755 179.406Z" fill="#F28168"/>
<path d="M225.594 156.862C225.299 155.569 223.953 155.45 222.944 156.003C221.56 156.762 220.56 158.137 220.106 159.66C218.597 158.968 216.687 158.575 215.071 158.603C211.405 158.666 209.938 160.222 209.743 160.599C209.399 161.26 209.338 161.969 209.534 162.687C209.746 163.469 210.29 164.099 210.534 164.863C210.744 165.524 210.736 166.191 211.136 166.789C211.544 167.396 212.529 167.459 212.748 168.192C212.945 168.843 212.966 170.043 212.401 170.61C211.873 171.141 213.482 171.762 213.966 172.324C214.811 173.304 216.233 174.841 217.654 174.649C219.017 174.466 220.203 172.803 221.001 171.814C222.026 170.542 222.858 169.127 223.294 167.543C223.698 166.074 223.66 164.462 223.151 163.043C223.977 162.321 224.636 161.386 225.052 160.376C225.479 159.346 225.848 157.978 225.594 156.862Z" fill="#574443"/>
<path d="M235.634 258.808C234.631 257.481 233.559 256.191 232.754 254.727C232 253.356 231.57 251.817 231.371 250.268C230.955 247.016 231.369 243.711 231.375 240.449C231.38 237.153 230.824 233.946 229.841 230.805C228.871 227.702 227.597 224.706 226.517 221.64C225.416 218.516 224.562 215.333 224.411 212.008C224.245 208.38 224.676 204.764 225.01 201.159C225.385 197.12 225.487 193.128 225.029 189.091C224.559 184.935 223.717 180.835 222.832 176.75C222.454 175.005 219.938 175.593 219.952 177.206C219.538 177.425 219.229 177.844 219.222 178.462C219.219 178.823 219.215 179.182 219.212 179.543C219.116 179.493 219.013 179.458 218.905 179.435C218.586 178.621 217.489 178.347 216.76 178.753C216.672 178.694 216.578 178.643 216.482 178.601C216.344 177.516 214.964 176.647 213.999 177.673C210.858 181.009 208.774 185.331 208.108 189.865C207.195 191.495 206.161 193.063 205.122 194.618C204.054 196.218 202.976 197.813 202.009 199.477C201.064 201.103 200.084 203.268 201.605 204.891C204.092 207.543 207.807 205.481 209.872 203.281C210.053 203.848 210.237 204.415 210.422 204.98C211.546 208.401 212.652 211.831 213.536 215.323C214.405 218.758 215.006 222.227 215.285 225.761C215.558 229.226 215.644 232.705 216.037 236.16C216.429 239.608 217.132 242.958 218.473 246.168C219.75 249.226 221.405 252.156 222.193 255.397C223.071 259.004 222.862 262.834 224.435 266.265C225.791 269.223 228.458 271.917 231.828 271.779C237.807 271.533 239.424 269.347 239.394 267.607C239.342 264.301 237.565 261.363 235.634 258.808Z" fill="#F07556"/>
<path d="M225.432 176.424C224.852 174.014 225.575 171.472 224.622 169.125C224.202 168.093 223.578 167.173 223.327 166.076C223.102 165.085 223.047 164.055 222.688 163.097C222.268 161.976 221.517 160.925 220.332 160.54C219.027 160.116 217.841 160.876 217.396 162.105C217.266 162.464 217.158 162.836 217.062 163.214C216.666 162.986 216.17 162.984 215.75 163.188C215.581 163.106 215.389 163.059 215.173 163.059C214.612 163.059 213.907 163.49 213.821 164.09C213.806 164.205 213.79 164.321 213.774 164.434C212.718 163.431 210.739 164.724 211.616 166.133C212.184 167.048 212.887 168.103 212.931 169.216C212.969 170.226 212.14 170.921 211.612 171.692C211.034 172.536 210.746 173.505 210.94 174.525C211.086 175.304 211.858 176.141 211.591 176.931C211.307 177.774 210.704 178.435 210.549 179.343C210.359 180.451 210.757 181.508 211.623 182.225C212.401 182.869 213.414 183.16 214.415 183.094C215.659 183.012 216.708 182.422 217.872 182.054C218.384 181.892 218.909 181.752 219.435 181.928C219.877 182.077 220.275 182.378 220.714 182.549C221.731 182.942 222.886 182.855 223.846 182.335C226.144 181.093 225.96 178.619 225.432 176.424Z" fill="#574443"/>
<path d="M259.66 87.9224C255.228 87.9503 250.797 87.9765 246.365 88.0061C244.746 88.0166 238.821 88.6621 238.072 89.0093C234.373 90.7227 234.371 95.3828 234.094 98.8863C233.69 103.991 234.058 126.437 234.258 145.465C235.964 146.962 237.849 148.219 239.906 149.107C246.203 151.827 253.224 151.691 259.787 150.024C266.373 148.353 272.558 145.008 276.64 139.46C278.869 136.431 280.182 132.771 280.479 129.03C280.63 127.123 280.548 124.832 279.686 123.098C279.623 122.971 279.552 122.85 279.477 122.733C278.944 120.51 277.653 118.502 275.736 117.248C274.907 116.705 273.966 116.356 272.99 116.206C271.926 115.405 270.699 114.774 269.459 114.322C268.22 111.745 266.685 109.26 265.291 106.821C264.34 105.157 263.486 103.445 262.707 101.694C262.678 101.627 262.653 101.573 262.634 101.53C262.525 101.268 262.418 101.006 262.314 100.743C262.141 100.308 261.976 99.8703 261.814 99.4306C261.474 98.5024 261.16 97.5655 260.873 96.6199C260.298 94.7286 259.827 92.8059 259.467 90.864C259.413 90.5778 259.368 90.2917 259.319 90.0038C259.465 89.4717 259.563 88.9081 259.627 88.3045C259.643 88.1771 259.653 88.0497 259.66 87.9224Z" fill="#B38740"/>
<path d="M309.728 176.347C304.938 174.197 300.806 171.078 296.368 168.309C291.328 165.165 285.557 162.815 279.51 163.188C273.192 163.577 267.115 166.175 262.751 170.832C258.935 174.902 256.617 179.95 254.825 185.175C253.139 190.097 251.954 195.181 250.01 200.013C248.653 203.08 247.017 206.018 245.03 208.722C243.616 210.476 242.051 212.093 240.312 213.522C238.833 214.592 237.262 215.504 235.6 216.261C235.493 216.305 235.391 216.348 235.288 216.394C236.411 217.791 238.213 218.027 239.98 218.084C241.891 218.146 243.802 218.203 245.713 218.257C249.653 218.369 253.592 218.468 257.531 218.552C265.41 218.72 273.292 218.824 281.172 218.849C288.995 218.873 294.755 218.911 302.576 218.763C306.515 218.688 310.454 218.589 314.392 218.463C316.151 218.407 318.263 218.629 319.939 218.036C322.216 217.228 322.57 214.982 322.676 212.859C322.755 211.304 322.608 192.716 322.492 179.362C321.654 179.31 320.817 179.236 319.983 179.14C316.469 178.599 313.033 177.663 309.728 176.347Z" fill="#27374D"/>
<path d="M268.764 103.484C268.757 103.316 268.757 103.365 268.764 103.484V103.484ZM322.588 170.631C322.554 167.028 322.553 160.505 322.568 152.842C320.546 152.406 318.472 152.158 316.385 151.954C315.439 151.862 314.493 151.778 313.549 151.678C313.2 151.642 312.853 151.6 312.507 151.56C312.242 151.516 311.975 151.479 311.711 151.436C310.852 151.291 309.998 151.118 309.155 150.897C308.336 150.682 307.367 150.478 306.618 150.064C306.783 150.146 307.313 150.386 306.757 150.106C306.599 150.026 306.437 149.951 306.278 149.869C305.883 149.665 305.498 149.443 305.125 149.201C304.977 149.105 304.834 149.004 304.687 148.904C304.332 148.576 303.97 148.267 303.639 147.911C303.517 147.781 303.402 147.645 303.283 147.512C302.813 146.987 303.33 147.624 303.386 147.664C303.088 147.451 302.842 146.88 302.649 146.561C302.443 146.219 302.252 145.868 302.074 145.511C301.975 145.312 301.884 145.108 301.787 144.907C301.781 144.898 301.778 144.891 301.774 144.883C301.769 144.867 301.762 144.851 301.755 144.832C300.55 141.597 300.037 138.202 299.17 134.875C298.22 131.237 296.744 127.613 294.112 124.86C291.106 121.716 286.918 120.669 282.958 119.277C282.095 118.973 281.247 118.645 280.397 118.312C280.331 118.286 280.28 118.272 280.242 118.263C280.142 118.214 280.045 118.16 279.989 118.134C279.51 117.92 279.034 117.694 278.564 117.457C277.757 117.051 276.968 116.611 276.205 116.128C275.886 115.925 275.571 115.716 275.261 115.498C275.208 115.461 275.072 115.371 274.956 115.295C274.788 115.165 274.628 115.016 274.471 114.88C273.832 114.331 273.229 113.737 272.673 113.102C272.553 112.966 272.44 112.823 272.32 112.687C272.313 112.678 272.306 112.671 272.299 112.663C272.025 112.27 271.746 111.883 271.492 111.475C271.06 110.782 270.673 110.061 270.326 109.322C270.29 109.241 270.227 109.131 270.177 109.021C270.161 108.964 270.144 108.905 270.124 108.856C269.943 108.386 269.778 107.912 269.626 107.432C269.337 106.511 269.103 105.572 268.92 104.623C268.877 104.396 268.835 104.169 268.797 103.943C268.779 103.836 268.767 103.62 268.76 103.489C268.762 103.566 268.767 103.686 268.771 103.866C268.758 103.409 268.664 102.945 268.628 102.487C268.448 100.256 268.532 98.0104 268.783 95.7876C268.805 95.5905 268.825 95.3898 268.854 95.1927C268.88 95.0339 268.908 94.8629 268.915 94.8246C269.009 94.2191 269.116 93.6155 269.231 93.0135C269.45 91.862 269.704 90.7175 269.981 89.5781C270.121 89.0041 270.265 88.4319 270.415 87.8613C266.002 87.8875 261.589 87.9154 257.178 87.9433C256.927 89.0617 256.707 90.1906 256.524 91.3299C255.723 96.3355 255.317 101.462 255.893 106.516C256.439 111.293 257.587 116.004 260.033 120.193C262.387 124.223 265.877 127.463 270.076 129.487C273.938 131.349 278.078 132.483 282.054 134.055C282.251 134.144 282.449 134.231 282.644 134.324C283.075 134.526 283.5 134.737 283.918 134.962C284.333 135.185 284.738 135.421 285.137 135.672C285.336 135.798 285.531 135.925 285.725 136.058C285.787 136.101 285.864 136.164 285.939 136.229C285.89 136.18 285.836 136.126 285.775 136.065C285.848 136.138 285.921 136.208 285.995 136.279C285.977 136.264 285.958 136.246 285.939 136.231C286.364 136.653 286.293 136.562 286.104 136.382C286.617 136.857 287.153 137.295 287.62 137.827C287.7 138.008 287.969 138.282 288.057 138.418C288.397 138.937 288.704 139.476 288.979 140.031C289.084 140.24 289.18 140.451 289.279 140.662C289.281 140.669 289.282 140.674 289.286 140.681C289.467 141.187 289.657 141.688 289.822 142.199C290.171 143.277 290.465 144.371 290.748 145.469C291.305 147.627 291.821 149.806 292.614 151.893C293.614 154.522 294.887 156.804 296.652 158.989C298.252 160.969 300.219 162.616 302.311 164.054C307.128 167.365 312.942 169.044 318.643 170.017C319.938 170.239 321.255 170.455 322.582 170.642C322.588 170.637 322.588 170.635 322.588 170.631Z" fill="#27374D"/>
<path d="M322.309 91.6489C321.065 88.73 318.155 87.671 315.2 87.4581C312.149 87.24 309.031 87.4407 305.975 87.4581C299.386 87.4965 292.796 87.5366 286.207 87.5767C284.317 87.5872 282.426 87.5994 280.536 87.6099C279.871 89.9775 279.466 92.4096 279.454 94.8994C279.425 100.596 281.531 106.746 286.094 110.382C288.517 112.314 291.251 113.762 294.302 114.428C297.44 115.112 300.445 115.093 303.598 114.594C308.902 113.756 314.238 110.742 317.648 106.579C320.366 103.258 322.27 99.3327 323.053 95.1506C322.978 93.9328 322.776 92.7429 322.309 91.6489Z" fill="#B38740"/>
<path d="M144.031 90.3806C144.031 86.0188 141.81 84.1554 140.575 83.611C137.932 82.4438 112.211 75.7842 101.346 73.2822C99.9032 72.9507 98.431 72.5686 96.9431 72.1621C95.0196 74.8979 93.4725 77.925 92.2442 81.0916C89.4479 88.2974 88.8276 96.2028 88.92 103.867C89.0245 112.558 89.8974 121.233 88.9897 129.909C88.1168 138.249 86.3885 146.734 88.791 155.002C90.035 159.287 92.4934 163.963 96.6678 166.041C99.2743 167.337 102.32 167.88 105.144 166.92C107.498 166.121 109.566 164.718 111.209 162.848C113.995 159.674 116.246 155.93 118.495 152.367C120.645 148.958 122.696 145.488 124.65 141.964C132.532 127.753 138.899 112.687 144.104 97.3002C144.059 94.0149 144.031 91.5339 144.031 90.3806Z" fill="#627A94"/>
<path d="M82.6043 124.218C81.4997 124.087 80.0327 124.766 79.8567 126.015C79.6023 127.809 79.1389 129.105 78.1789 130.574C77.435 131.713 77.9507 133.359 79.0814 134.02C80.3149 134.742 81.7662 134.25 82.5224 133.116C83.8238 131.165 84.5033 128.993 84.7769 126.681C84.9197 125.462 83.7123 124.35 82.6043 124.218Z" fill="#27374D"/>
<path d="M71.628 159.287C70.5234 159.156 69.0564 159.835 68.8805 161.084C68.6261 162.878 68.1627 164.174 67.2027 165.643C66.4587 166.782 66.9744 168.428 68.1052 169.089C69.3387 169.811 70.79 169.319 71.5461 168.185C72.8476 166.235 73.5271 164.062 73.8006 161.751C73.9435 160.531 72.7361 159.42 71.628 159.287Z" fill="#27374D"/>
<path d="M82.9458 137.708C81.6791 137.359 80.1686 138.136 79.8637 139.462C79.2452 142.142 78.2242 144.375 76.651 146.652C75.8792 147.768 76.4454 149.443 77.5517 150.092C78.8149 150.832 80.1947 150.296 80.9875 149.19C82.7733 146.697 84.0312 143.789 84.6985 140.796C84.9912 139.474 84.296 138.08 82.9458 137.708Z" fill="#27374D"/>
<path d="M91.4829 162.309C90.2163 161.96 88.7057 162.736 88.4008 164.062C87.7823 166.742 86.7613 168.976 85.1881 171.253C84.4163 172.369 84.9825 174.044 86.0888 174.693C87.352 175.433 88.7319 174.897 89.5246 173.791C91.3104 171.298 92.5683 168.389 93.2356 165.397C93.5283 164.075 92.8331 162.681 91.4829 162.309Z" fill="#27374D"/>
<path d="M97.5808 171.382C96.3142 171.033 94.8036 171.809 94.4987 173.135C93.8802 175.815 92.8592 178.048 91.286 180.325C90.5142 181.442 91.0804 183.117 92.1867 183.766C93.4499 184.506 94.8298 183.97 95.6225 182.864C97.4083 180.371 98.6662 177.462 99.3335 174.47C99.6262 173.147 98.931 171.753 97.5808 171.382Z" fill="#27374D"/>
<path d="M87.3015 202.787C86.0349 202.438 84.5243 203.214 84.2194 204.54C83.6009 207.22 82.5799 209.453 81.0067 211.73C80.2348 212.847 80.8011 214.522 81.9074 215.171C83.1706 215.911 84.5504 215.375 85.3432 214.269C87.129 211.776 88.3869 208.867 89.0542 205.875C89.3469 204.552 88.6517 203.158 87.3015 202.787Z" fill="#27374D"/>
<path d="M78.9386 220.409C77.6719 220.06 76.1614 220.836 75.8565 222.162C75.238 224.842 74.217 227.075 72.6438 229.352C71.8719 230.469 72.4382 232.144 73.5445 232.793C74.8077 233.533 76.1875 232.997 76.9803 231.891C78.7661 229.397 80.024 226.489 80.6913 223.497C80.984 222.174 80.2888 220.78 78.9386 220.409Z" fill="#27374D"/>
<path d="M97.9292 187.084C96.6626 186.735 95.1521 187.512 94.8472 188.838C94.2287 191.518 93.2077 193.751 91.6344 196.028C90.8626 197.144 91.4288 198.819 92.5352 199.468C93.7983 200.208 95.1782 199.672 95.9709 198.566C97.7568 196.073 99.0147 193.165 99.682 190.172C99.9747 188.85 99.2795 187.456 97.9292 187.084Z" fill="#27374D"/>
<path d="M108.383 164.751C107.116 164.402 105.606 165.179 105.301 166.505C104.682 169.185 103.661 171.418 102.088 173.695C101.316 174.812 101.882 176.486 102.989 177.136C104.252 177.875 105.632 177.34 106.425 176.233C108.21 173.74 109.468 170.832 110.136 167.84C110.428 166.517 109.733 165.123 108.383 164.751Z" fill="#27374D"/>
<path d="M76.3252 172.428C75.0585 172.079 73.548 172.856 73.2431 174.182C72.6246 176.862 71.6036 179.095 70.0304 181.372C69.2585 182.488 69.8248 184.163 70.9311 184.812C72.1943 185.552 73.5741 185.017 74.3669 183.91C76.1527 181.417 77.4106 178.509 78.0779 175.517C78.3706 174.194 77.6754 172.8 76.3252 172.428Z" fill="#27374D"/>
<path d="M78.7173 156.014C78.0709 158.306 77.1928 160.329 76.0081 162.393C74.393 165.205 78.6825 167.709 80.3463 164.931C81.7558 162.576 82.8238 159.994 83.5451 157.347C84.3953 154.229 79.5919 152.906 78.7173 156.014Z" fill="#27374D"/>
<path d="M113.737 147.988C113.09 150.281 112.212 152.303 111.028 154.367C109.413 157.179 113.702 159.683 115.366 156.906C116.775 154.55 117.843 151.968 118.565 149.321C119.415 146.203 114.611 144.881 113.737 147.988Z" fill="#27374D"/>
<path d="M100.844 154.444C100.198 156.736 99.3196 158.759 98.1348 160.823C96.5198 163.635 100.809 166.139 102.473 163.361C103.883 161.006 104.951 158.424 105.672 155.777C106.522 152.659 101.719 151.336 100.844 154.444Z" fill="#27374D"/>
<path d="M93.3802 145.345C92.1031 144.994 90.6222 145.774 90.3016 147.095C89.8295 149.033 89.1395 150.572 88.0123 152.261C87.2579 153.39 87.7927 155.044 88.913 155.698C90.1605 156.429 91.5717 155.915 92.3453 154.796C93.6677 152.887 94.612 150.691 95.1294 148.428C95.4309 147.111 94.7252 145.715 93.3802 145.345Z" fill="#27374D"/>
<path d="M75.2606 190.01C73.9836 189.66 72.5026 190.439 72.1821 191.76C71.7099 193.699 71.02 195.237 69.8927 196.926C69.1383 198.055 69.6732 199.709 70.7935 200.363C72.0409 201.095 73.4522 200.58 74.2257 199.461C75.5481 197.553 76.4924 195.356 77.0099 193.093C77.3113 191.776 76.6057 190.38 75.2606 190.01Z" fill="#27374D"/>
<path d="M86.0627 183.031C84.7856 182.681 83.3047 183.46 82.9841 184.781C82.5119 186.72 81.822 188.258 80.6948 189.947C79.9404 191.076 80.4752 192.73 81.5955 193.384C82.843 194.115 84.2542 193.601 85.0278 192.482C86.3502 190.574 87.2945 188.377 87.8119 186.114C88.1133 184.797 87.4077 183.401 86.0627 183.031Z" fill="#27374D"/>
<path d="M74.5637 206.236C73.2867 205.885 71.8057 206.665 71.4852 207.986C71.013 209.924 70.3231 211.463 69.1958 213.152C68.4414 214.281 68.9763 215.935 70.0966 216.589C71.344 217.32 72.7553 216.806 73.5288 215.687C74.8512 213.778 75.7955 211.582 76.313 209.319C76.6144 208.002 75.9088 206.606 74.5637 206.236Z" fill="#27374D"/>
<path d="M44.2187 81.3691C44.0323 65.731 43.5793 50.0878 42.6768 34.4724C42.689 34.3136 42.7012 34.1549 42.7134 33.9961C34.9708 34.2683 10.9048 34.1863 10.6052 34.1985C8.37334 34.2979 6.3767 36.0409 6.42026 38.3893C7.01437 70.2987 7.45516 101.788 7.63461 133.702C7.74089 152.662 7.76703 171.622 7.71476 190.582C15.3285 188.607 22.4648 183.893 27.4076 177.874C30.4966 174.11 32.8696 170.063 34.5056 165.463C36.2914 160.442 36.7409 154.969 36.8315 149.675C36.9256 144.171 36.6207 138.647 37.2444 133.165C37.6904 130.368 38.4414 127.666 39.485 125.036C40.8701 121.922 42.5618 118.972 44.3267 116.061C44.3285 101.292 44.3023 88.4474 44.2187 81.3691Z" fill="#E3E0DA"/>
<path d="M144.056 93.3555C137.942 91.3979 131.297 92.2563 125.539 94.9868C119.204 97.9912 114.434 103.766 112.31 110.405C110.109 117.284 110.86 125.045 113.016 131.834C115.441 139.476 119.505 146.43 122.683 153.756C124.523 158.246 125.985 162.887 126.727 167.69C127.058 170.619 127.098 173.563 126.783 176.495C126.417 178.788 125.83 181.03 124.99 183.193C124.192 184.923 123.229 186.554 122.108 188.096C119 191.903 115.141 194.984 111.343 198.076C107.083 201.543 103.046 205.2 99.5008 209.412C91.5944 218.803 84.8153 230.291 83.9476 242.794C83.9302 243.04 83.918 243.289 83.9058 243.537C85.0017 243.317 86.0958 243.095 87.19 242.876C93.314 241.647 99.4294 240.381 105.538 239.076C111.589 237.781 117.633 236.45 123.668 235.078C126.741 234.38 129.813 233.672 132.881 232.955C135.294 232.391 137.902 231.854 139.942 230.359C141.406 229.286 142.481 227.958 143.082 226.226C143.625 224.661 143.646 222.942 143.676 221.302C143.709 219.369 143.742 217.434 143.777 215.501C143.909 214.3 143.974 213.095 144.005 211.91C144.131 207.189 144.094 202.459 144.131 197.736C144.206 188.117 144.281 178.497 144.355 168.878L144.582 139.673C144.645 131.232 144.169 103.512 144.056 93.3555Z" fill="#F79E88"/>
<path d="M322.192 121.993C319.53 121.418 317.134 119.392 315.681 117.164C314.057 114.672 313.693 111.548 313.855 108.639C314 106.029 314.531 103.45 314.57 100.833C314.573 100.652 314.576 98.7919 314.468 98.7849C314.451 98.7831 314.521 99.1356 314.529 99.1792C314.531 99.1862 314.531 99.1844 314.529 99.1792C314.526 99.1583 314.509 99.0797 314.474 98.9105C314.441 98.75 314.414 98.5895 314.38 98.4307C314.32 98.1533 314.251 97.8776 314.174 97.6037C314.076 97.2547 313.965 96.9093 313.84 96.5691C313.813 96.4975 313.786 96.412 313.756 96.3283C313.737 96.2934 313.716 96.2585 313.702 96.2306C313.418 95.6566 313.125 95.093 312.78 94.5522C312.603 94.2747 312.413 94.0061 312.221 93.7391C312.381 93.9677 311.989 93.453 311.848 93.2907C311.426 92.8092 310.977 92.3538 310.501 91.9246C310.353 91.7903 310.202 91.6594 310.048 91.5303C310.038 91.5216 310.02 91.5076 310.001 91.4902C308.968 91.2023 307.931 90.9353 306.897 90.6876C303.726 89.9304 300.387 89.4104 297.124 89.7542C291.272 90.3683 285.691 93.4251 283.733 99.2752C282.82 102 282.994 104.993 284.268 107.566C285.496 110.049 287.789 111.867 290.122 113.25C292.329 114.559 294.72 115.531 296.87 116.937C298.837 118.223 300.414 119.791 300.773 122.129C300.997 123.595 300.835 125.113 300.889 126.591C300.945 128.089 301.171 129.581 301.755 130.968C303.09 134.137 305.968 135.361 309.2 135.705C312.195 136.024 315.498 136.209 318.406 135.29C319.965 134.798 321.357 133.973 322.612 132.959C322.629 129.22 322.647 125.54 322.666 122.081C322.506 122.054 322.349 122.026 322.192 121.993Z" fill="#F79E88"/>
<path opacity="0.58" d="M144.589 134.685C144.512 121.467 144.045 95.0164 144.045 90.3528C144.045 85.9909 141.824 84.1276 140.589 83.5832C138.754 82.7737 125.816 79.3208 114.435 76.4473C112.718 80.2543 111.463 84.2776 110.625 88.4161C108.907 96.8973 108.074 106.34 111.31 114.575C112.921 118.679 115.242 122.463 118.638 125.335C121.892 128.088 125.64 130.373 129.396 132.376C133.473 134.55 138.892 136.888 143.524 135.152C143.892 135.013 144.246 134.856 144.589 134.685Z" fill="white"/>
<path opacity="0.58" d="M121.678 204.901C119.995 201.972 117.519 199.547 114.967 197.378C113.496 196.129 111.963 194.914 110.329 193.885C108.848 192.953 107.261 192.254 105.641 191.601C100.306 189.45 94.4482 189.098 89.0925 187.032C88.3242 186.679 87.575 186.287 86.8572 185.835C86.6098 185.678 86.3711 185.51 86.1289 185.345C85.7177 184.99 85.3205 184.628 84.9442 184.235C84.7229 184.003 84.5086 183.766 84.3013 183.521C84.3326 183.568 84.3657 183.619 84.4006 183.675C84.364 183.617 84.3257 183.562 84.2873 183.506C84.2873 183.506 84.2873 183.506 84.2873 183.504C84.1479 183.338 83.9528 183.029 83.9354 182.987C83.7472 182.715 83.5591 182.441 83.3866 182.157C82.8378 181.253 82.3639 180.309 81.9318 179.344C79.9195 174.278 78.9055 168.888 76.691 163.883C74.4366 158.788 70.4694 154.426 65.2548 152.367C65.4865 169.731 65.7165 187.093 65.9482 204.456C66.1172 217.109 66.2845 229.764 66.4535 242.417C66.4692 243.565 67.2776 244.754 68.4362 245.025C71.6315 245.766 74.8094 245.417 77.9995 244.833C81.0798 244.268 84.1497 243.636 87.2196 243.02C93.3436 241.792 99.459 240.525 105.567 239.22C111.134 238.03 116.692 236.805 122.244 235.551C123.37 231.997 124.133 228.337 124.555 224.571C125.283 218.057 125.016 210.713 121.678 204.901ZM71.8232 240.056C71.8232 239.993 71.8214 239.929 71.8214 239.866C71.8963 239.932 71.9747 239.997 72.0531 240.059C71.9765 240.059 71.8998 240.059 71.8232 240.056ZM84.303 183.521C84.0138 183.076 83.9249 182.958 83.9371 182.989C84.0556 183.16 84.1741 183.333 84.2891 183.506C84.2943 183.511 84.2978 183.516 84.303 183.521Z" fill="white"/>
<path d="M289.211 161.339C288.46 159.662 287.369 158.01 285.988 156.792C283.979 155.023 281.698 154.128 279.053 153.866C274.375 153.404 270.149 155.909 266.697 158.772C265.295 159.934 264.014 161.403 262.49 162.403C262.552 162.361 263.518 161.655 262.819 162.143C262.617 162.284 262.42 162.431 262.216 162.571C261.854 162.817 261.484 163.052 261.106 163.274C260.488 163.637 259.852 163.965 259.202 164.265C257.423 164.952 255.583 165.428 253.703 165.732C250.878 166.03 248.043 165.945 245.222 165.617C241.576 165.067 238.016 164.15 234.453 163.221C234.448 165.334 234.432 167.208 234.403 168.771C234.258 176.241 234.127 183.71 234.11 191.181C240.171 192.383 246.457 192.484 252.59 191.497C255.838 190.973 258.949 189.846 262.185 189.289C262.917 189.223 263.647 189.202 264.38 189.248C264.819 189.338 265.251 189.453 265.676 189.597C265.817 189.668 265.957 189.743 266.093 189.825C266.157 189.863 266.22 189.905 266.281 189.947C266.368 190.04 266.488 190.174 266.595 190.291C266.6 190.298 266.603 190.307 266.607 190.312C266.617 190.329 266.624 190.347 266.635 190.364C266.715 190.628 266.779 190.895 266.835 191.163C266.927 192.521 266.852 193.89 266.703 195.242C266.209 198.329 265.279 201.311 264.11 204.205C262.673 207.511 260.984 210.699 259.279 213.873C258.446 215.422 257.611 216.971 256.803 218.533C257.113 218.54 257.423 218.549 257.733 218.554C265.612 218.721 273.494 218.826 281.374 218.85C282.08 218.852 282.77 218.856 283.446 218.857C284.36 217.699 285.205 216.485 285.977 215.242C289.725 209.209 291.572 202.368 292.417 195.375C293.298 188.082 292.849 180.634 292.094 173.348C291.66 169.148 290.944 165.205 289.211 161.339Z" fill="#F79E88"/>
<path d="M256.195 71.5481C256.181 71.5132 256.167 71.48 256.155 71.4451C256.151 71.4364 256.146 71.4242 256.143 71.4137C256.136 71.398 256.129 71.3806 256.122 71.3649C256.014 71.1154 255.839 70.7786 256.195 71.5481Z" fill="white"/>
<path opacity="0.14" d="M331.431 24.1663C325.647 24.2134 319.861 24.2414 314.075 24.2588C313.921 24.0076 313.702 23.8017 313.432 23.7162C312.47 23.4109 311.426 23.0794 310.412 23.02C309.395 22.9607 308.778 23.5051 308.358 24.2728C301.901 24.2815 295.443 24.2745 288.986 24.2466C284.785 24.2291 280.585 24.2012 276.386 24.1681C276.362 24.1157 276.339 24.0634 276.313 24.011C276.06 23.4911 275.342 23.0811 274.757 23.2573C273.959 23.4981 273.107 23.7563 272.344 24.1332C263.744 24.0564 255.143 23.9517 246.543 23.8122C245.182 23.7895 243.821 23.765 242.461 23.7406C242.171 23.2678 241.506 22.9171 240.957 23.0829C240.372 23.2591 239.755 23.4458 239.166 23.6813C233.657 23.5766 228.15 23.4632 222.642 23.355C221.141 23.3254 221.141 26.9492 222.642 26.9893C227.512 27.1184 232.382 27.2266 237.251 27.3208C237.523 28.4601 237.791 29.6012 238.063 30.7405C237.781 30.8469 237.607 30.9167 237.593 30.9341C237.026 31.2918 236.568 31.7908 236.33 32.4852C236.021 33.3855 236.216 34.3503 236.338 35.2681C236.467 36.2364 236.617 37.2012 236.79 38.1608C237.068 39.7101 237.182 42.0219 238.61 43.0059C239.363 43.5241 240.265 43.4805 241.103 43.231C242.116 42.9309 243.119 42.582 244.118 42.2365C244.95 41.9486 245.78 41.6503 246.607 41.3432C247.619 40.9664 248.694 40.6802 249.135 39.5793C249.426 38.8535 249.334 38.0893 249.121 37.3513C248.832 36.3498 248.506 35.357 248.2 34.3608C247.931 33.4884 247.661 32.6161 247.393 31.7437C247.116 30.8469 246.835 29.9205 245.989 29.3953C245.395 29.0272 244.691 28.987 244.006 29.0184C243.879 28.4915 243.766 27.9629 243.647 27.4342C250.792 27.5546 257.937 27.6453 265.082 27.7238C267.095 27.7465 269.107 27.7622 271.119 27.7814C271.367 28.8248 271.614 29.8681 271.863 30.9115C271.581 31.0179 271.407 31.0877 271.393 31.1051C270.826 31.4628 270.368 31.9618 270.13 32.6562C269.821 33.5565 270.016 34.5213 270.138 35.439C270.267 36.4074 270.417 37.3722 270.59 38.3318C270.868 39.8811 270.982 42.1929 272.41 43.1769C273.163 43.6951 274.065 43.6515 274.903 43.402C275.916 43.1019 276.919 42.753 277.917 42.4075C278.75 42.1196 279.58 41.8213 280.407 41.5142C281.419 41.1373 282.494 40.8512 282.935 39.7503C283.226 39.0245 283.134 38.2603 282.921 37.5223C282.632 36.5208 282.306 35.528 282 34.5318C281.731 33.6594 281.461 32.7871 281.193 31.9147C280.916 31.0179 280.635 30.0914 279.789 29.5663C279.195 29.1981 278.491 29.158 277.806 29.1894C277.696 28.7393 277.599 28.2856 277.498 27.8338C287.301 27.907 297.103 27.9402 306.907 27.9315C306.848 28.0867 306.789 28.242 306.729 28.3991C306.437 28.3275 306.252 28.2874 306.233 28.2926C305.564 28.2682 304.903 28.42 304.316 28.8597C303.553 29.4284 303.173 30.3374 302.757 31.1627C302.318 32.0351 301.9 32.9162 301.501 33.8077C300.858 35.2436 299.65 37.2169 300.276 38.8378C300.605 39.691 301.375 40.1638 302.208 40.4325C303.213 40.757 304.238 41.0344 305.257 41.3136C306.107 41.5456 306.961 41.7689 307.816 41.9818C308.864 42.2418 309.914 42.6134 310.899 41.9521C311.547 41.5159 311.902 40.8338 312.143 40.1045C312.468 39.1134 312.758 38.1102 313.066 37.114C313.334 36.2416 313.604 35.3693 313.873 34.4969C314.15 33.6001 314.439 32.6771 314.035 31.7646C313.752 31.1261 313.193 30.6951 312.609 30.334C312.914 29.5244 313.254 28.7288 313.554 27.9175C319.512 27.9018 325.473 27.8704 331.431 27.8233C332.945 27.8215 332.949 24.1541 331.431 24.1663Z" fill="#D9D6D0"/>
</svg>
