<svg width="231" height="43" viewBox="0 0 231 43" fill="none" xmlns="http://www.w3.org/2000/svg">
<g filter="url(#filter0_i_4436_2)">
<path d="M3.3025 37.5612C3.1025 37.56 2.91968 37.4755 2.75404 37.3078C0.998876 35.4303 0.121804 34.4083 0.122828 34.2416C0.124056 34.0416 0.224668 33.9422 0.424665 33.9434L0.524663 33.9441C1.42813 33.3829 2.18118 32.8875 2.78383 32.4579C3.09079 31.3264 3.49877 30.0289 4.00777 28.5654C4.5501 27.102 5.1593 25.6057 5.83537 24.0765L8.72555 17.5441C9.36788 16.0814 9.85888 14.8344 10.1986 13.8031C10.5718 12.7387 10.7604 11.8732 10.7645 11.2065C10.769 10.4732 10.4546 10.1046 9.82129 10.1007L8.06917 10.44C7.90251 10.4389 7.81979 10.3384 7.82102 10.1384C7.82409 9.63844 8.45895 9.39233 9.72559 9.40011C10.9922 9.40789 11.9408 9.64706 12.5712 10.1176C13.2019 10.5548 13.5149 11.1568 13.5102 11.9234C13.5059 12.6234 12.7443 14.5021 11.2255 17.5595L8.2384 23.5912L5.24669 30.373C6.6207 29.1814 7.97927 27.7897 9.32241 26.198C10.6991 24.573 11.7237 23.2793 12.3963 22.3168C13.1024 21.3211 13.5055 20.8235 13.6055 20.8242L13.8555 20.8257C15.0555 20.8331 15.6541 21.0534 15.6515 21.4867C15.6517 21.4534 15.635 21.4533 15.6015 21.4864C15.6015 21.4864 15.618 21.5032 15.6512 21.5367L15.6515 21.4867C15.6185 21.4199 15.5346 21.5194 15.3996 21.7852C14.9279 22.6156 14.4721 23.5462 14.0325 24.5769C13.6261 25.6077 13.2359 26.722 12.8619 27.9197C12.1142 30.2485 11.738 31.8129 11.7331 32.6129C11.7206 34.6462 12.0643 35.665 12.7643 35.6693C12.9976 35.6707 13.4829 35.357 14.2201 34.7282C14.3201 34.7288 14.3693 34.8624 14.3676 35.1291C14.3623 35.9958 13.8763 36.4261 12.9097 36.4202C11.9764 36.4144 11.2127 35.9264 10.6186 34.9561C10.0246 33.9857 9.73145 32.8673 9.73923 31.6006C9.74763 30.234 10.0737 28.7026 10.7175 27.0065C9.64406 28.1 8.57117 29.1101 7.49879 30.0368C6.45995 30.9305 5.45485 31.7576 4.48349 32.5184C3.80517 34.4142 3.46396 35.6955 3.45987 36.3621L3.45833 36.6121C3.7571 36.814 3.90607 36.9816 3.90525 37.1149C3.90341 37.4149 3.70249 37.5636 3.3025 37.5612ZM2.36204 36.0054C2.36245 35.9387 2.34639 35.8386 2.31388 35.7051C2.31449 35.6051 2.31521 35.4884 2.31603 35.3551C2.31808 35.0218 2.37105 34.5387 2.47493 33.906C2.10705 34.1038 1.80613 34.2519 1.57219 34.3505C1.33824 34.4491 1.18784 34.5148 1.12097 34.5477C1.2862 34.7821 1.46799 35.0332 1.66635 35.3011C1.86491 35.5357 2.09681 35.7704 2.36204 36.0054ZM21.9797 36.3759C19.1464 36.3585 17.7378 35.0331 17.754 32.3999C17.7665 30.3666 18.7816 27.9061 20.7994 25.0184C22.8838 22.1312 24.8594 20.6933 26.726 20.7047C27.526 20.7097 28.2243 20.9806 28.8211 21.5176C29.4513 22.0215 29.7642 22.6401 29.7597 23.3734C29.7521 24.6067 28.9611 25.8519 27.3867 27.1089C25.8458 28.3328 24.3254 28.9402 22.8254 28.9309C22.5254 28.9291 22.3758 28.8615 22.3766 28.7282L22.5282 28.4791C26.3688 27.3027 28.2975 25.3478 28.3143 22.6145C28.3168 22.2145 28.1847 22.0137 27.918 22.0121C27.5513 22.0098 26.8823 22.3891 25.911 23.1498C25.0736 23.8113 24.2855 24.5732 23.5469 25.4353C22.8416 26.2977 22.2027 27.1938 21.6303 28.1236C20.4179 30.1495 19.8074 31.8458 19.7991 33.2124C19.7909 34.5457 20.3034 35.2156 21.3367 35.2219C22.5367 35.2293 23.8571 34.6207 25.298 33.3962C25.7673 32.9658 26.2703 32.4855 26.8069 31.9555C27.3437 31.3921 27.9308 30.779 28.5682 30.1162C29.8097 28.7905 30.4638 28.1278 30.5305 28.1283C30.7305 28.1295 30.83 28.2134 30.8289 28.3801C30.8281 28.5134 30.794 28.6465 30.7265 28.7795C27.1952 33.8579 24.2796 36.39 21.9797 36.3759ZM35.5499 36.3592C33.95 36.3494 33.1582 35.0112 33.1746 32.3446C33.185 30.6446 33.7355 27.8479 34.8261 23.9546C35.9169 20.0278 37.2891 16.4195 38.9427 13.1296C40.63 9.77327 42.107 8.09898 43.3736 8.10676C44.1069 8.11126 44.8387 8.36576 45.569 8.87026C46.2994 9.34142 46.6629 9.86033 46.6594 10.427C46.6447 12.8269 43.0787 18.1385 35.9614 26.3616C35.6871 27.5932 35.4634 28.7419 35.2902 29.8075C35.1503 30.8733 35.0775 31.8729 35.0718 32.8062C35.0605 34.6395 35.4549 35.5586 36.2548 35.5636L37.0564 35.3185C37.223 35.3195 37.3058 35.4033 37.3048 35.57C37.3015 36.1033 36.7166 36.3664 35.5499 36.3592ZM36.3193 25.0638C42.4009 17.2343 45.4479 12.3029 45.4604 10.2696C45.4628 9.86962 45.3474 9.66891 45.1141 9.66748C44.1141 9.66134 42.6532 11.4357 40.7313 14.9907C38.8094 18.5456 37.3388 21.9033 36.3193 25.0638ZM46.6435 36.4274C45.0435 36.4176 44.2517 35.0793 44.2681 32.4127C44.2785 30.7127 44.8291 27.9161 45.9197 24.0227C47.0105 20.096 48.3827 16.4877 50.0362 13.1978C51.7235 9.84141 53.2005 8.16712 54.4672 8.1749C55.2005 8.1794 55.9323 8.4339 56.6625 8.93839C57.393 9.40956 57.7565 9.92847 57.753 10.4951C57.7382 12.8951 54.1722 18.2066 47.0549 26.4297C46.7807 27.6614 46.5569 28.81 46.3837 29.8757C46.2438 30.9415 46.171 31.9411 46.1653 32.8744C46.154 34.7077 46.5484 35.6268 47.3484 35.6317L48.1499 35.3866C48.3166 35.3876 48.3994 35.4715 48.3984 35.6381C48.3951 36.1715 47.8101 36.4345 46.6435 36.4274ZM47.4129 25.1319C53.4944 17.3024 56.5414 12.3711 56.5539 10.3378C56.5564 9.93776 56.4409 9.73705 56.2076 9.73562C55.2076 9.72948 53.7467 11.5039 51.8248 15.0588C49.903 18.6137 48.4323 21.9714 47.4129 25.1319ZM58.0015 36.0471C55.3016 36.0306 53.9603 34.6056 53.9777 31.7723C53.9846 30.639 54.242 29.4406 54.7498 28.177C55.2911 26.8803 55.9475 25.8343 56.7191 25.039C56.3563 24.4035 56.1778 23.619 56.1835 22.6857C56.1895 21.7191 56.5948 20.8549 57.3995 20.0931C58.2044 19.2981 59.1902 18.9041 60.3568 18.9113C62.5234 18.9246 63.9831 20.0669 64.7358 22.3382C66.3006 22.6479 67.0817 23.0193 67.079 23.4527C67.076 23.9526 66.9078 24.2016 66.5744 24.1996L65.3257 23.9919C65.357 24.3254 65.3718 24.6255 65.3702 24.8922C65.4019 25.159 65.4171 25.3925 65.4159 25.5925C65.3991 28.3258 64.684 30.7714 63.2708 32.9294C61.8579 35.0208 60.1015 36.06 58.0015 36.0471ZM57.4218 24.5934C59.6989 22.9073 61.2708 22.067 62.1374 22.0723L62.2874 22.0732C61.8279 20.9037 60.9649 20.315 59.6982 20.3073C59.1316 20.3038 58.6637 20.5009 58.2946 20.8986C57.9256 21.2631 57.6562 21.7114 57.4863 22.2437C57.3163 22.776 57.23 23.2588 57.2274 23.6921C57.2249 24.0921 57.2897 24.3925 57.4218 24.5934ZM57.9552 35.4468C59.3218 35.4552 60.6117 34.3965 61.8248 32.2705C63.0381 30.1113 63.6507 28.0483 63.6628 26.0817C63.6681 25.2151 63.5224 24.5142 63.2257 23.979C61.9912 24.1714 60.6364 24.9464 59.1614 26.3041C59.4933 26.5394 59.7592 26.6578 59.9592 26.659C60.1594 26.6269 60.2762 26.6109 60.3095 26.6111C60.4762 26.6122 60.559 26.696 60.558 26.8627C60.5563 27.1293 60.3388 27.2613 59.9055 27.2587C59.5389 27.2564 59.1229 27.1372 58.6577 26.901C56.8784 28.9568 55.9831 30.9013 55.9718 32.7346C55.9608 34.5346 56.6219 35.4386 57.9552 35.4468ZM73.7293 41.3238C72.3293 41.3152 71.1431 40.7013 70.1706 39.4819C69.2447 38.2629 68.7868 36.8367 68.7968 35.2034C68.8189 31.6102 70.7364 27.1419 74.5493 21.7985C76.4792 19.1036 78.5013 16.596 80.6156 14.2756C82.7299 11.9552 84.9597 9.82222 87.305 7.87659C92.0423 3.98561 95.6476 2.04772 98.1209 2.06291C98.9609 2.06807 99.3793 2.32731 99.3762 2.84064C99.375 3.0273 99.2575 3.16658 99.0236 3.25848C96.0745 4.73372 93.3097 6.58344 90.7294 8.80764C89.4158 9.91959 88.0077 11.241 86.5049 12.7718C85.0488 14.3029 83.4516 16.0197 81.7132 17.9224C78.2831 21.7281 75.6008 25.3517 73.6663 28.7932C71.7784 32.235 70.8285 34.9359 70.8165 36.8959C70.8056 38.6692 71.5234 39.5603 72.9701 39.5691C74.1834 39.5766 75.3047 39.3735 76.3339 38.9598C77.2692 38.6389 79.0741 37.2966 81.7487 34.933C83.1092 33.7746 84.846 32.1286 86.9591 29.9949C89.1192 27.8148 91.6557 25.147 94.5684 21.9915C100.394 15.6805 103.657 12.5271 104.357 12.5314C105.057 12.5357 105.405 12.8179 105.402 13.3778C105.095 17.6227 104.936 20.7951 104.923 22.8951C104.868 31.9016 105.89 36.4113 107.99 36.4242C110.09 36.4371 111.969 34.3719 113.628 30.2287C115.287 26.0388 116.128 22.1006 116.151 18.414C116.186 12.7674 114.759 9.46858 111.872 8.51749C111.732 8.4233 111.663 8.35287 111.663 8.3062C111.666 7.83955 112.414 7.6108 113.907 7.61998C115.4 7.62915 116.608 8.61658 117.529 10.5823C118.451 12.5013 118.901 15.0941 118.881 18.3607C118.849 23.5406 117.772 28.0608 115.648 31.9211C113.524 35.7348 110.853 37.6318 107.633 37.612C103.806 37.5885 101.917 33.6568 101.965 25.817C101.984 22.7837 102.286 19.2155 102.871 15.1123C102.214 15.7616 101.133 16.9684 99.6286 18.7325C98.1244 20.4966 96.1267 22.8177 93.6357 25.6958C91.2382 28.5278 89.0534 30.9411 87.0811 32.9357C85.1555 34.9306 83.4423 36.5301 81.9415 37.7342C78.94 40.1425 76.2026 41.339 73.7293 41.3238ZM125.888 39.6142C122.808 39.5953 120.247 38.5528 118.207 36.4869C116.212 34.468 115.225 31.8719 115.244 28.6986C115.27 24.4987 116.929 20.4021 120.22 16.4089C123.512 12.3224 127.615 9.0342 132.531 6.54435C137.539 4.05506 142.354 2.82461 146.974 2.85299C150.24 2.87305 152.85 3.54242 154.802 4.8611C156.754 6.13312 157.723 7.86577 157.71 10.0591C157.703 11.179 157.203 12.7627 156.21 14.8099C156.394 15.3244 156.483 16.095 156.476 17.1216C156.448 21.6482 153.901 26.136 148.833 30.5849C144.893 33.9675 141.238 36.3017 137.87 37.5877C134.455 38.9668 130.461 39.6423 125.888 39.6142ZM129.119 37.814C132.199 37.8329 135.564 37.0369 139.213 35.4259C142.817 33.8147 145.981 31.5241 148.706 28.5541C151.525 25.4447 153.109 22.141 153.457 18.6431C151.061 21.2884 147.873 23.6489 143.893 25.7245C143.566 25.8625 143.402 25.8848 143.403 25.7915C143.402 25.8382 144.059 25.3288 145.372 24.2636C148.984 21.2524 151.66 18.6787 153.4 16.5427C153.084 14.7207 152.207 13.1287 150.769 11.7665C149.378 10.3579 147.634 9.34383 145.538 8.72428C145.072 8.58141 144.489 8.4845 143.789 8.43353C143.136 8.38286 142.273 8.33089 141.2 8.27763C140.454 8.17971 139.755 8.10541 139.102 8.05473C138.495 8.00434 138.076 7.9551 137.842 7.907L138.053 7.76829C139.736 7.26529 141.628 7.02023 143.728 7.03313C145.968 7.04689 148.228 7.62078 150.508 8.7548C152.788 9.7955 154.459 11.2525 155.521 13.1257C155.852 12.3344 156.021 11.4954 156.026 10.6087C156.039 8.60211 155.208 7.01031 153.536 5.83335C151.91 4.61 149.72 3.98988 146.967 3.97297C142.72 3.94688 138.467 5.06411 134.206 7.32465C129.899 9.53824 126.31 12.5496 123.44 16.3587C120.57 20.1678 119.123 24.079 119.098 28.0922C119.079 31.1722 119.951 33.5576 121.714 35.2485C123.524 36.9396 125.992 37.7948 129.119 37.814ZM160.25 38.8452C159.27 38.8392 158.789 37.4829 158.805 34.7763C158.831 30.623 160.518 25.7099 163.866 20.0371C163.127 18.7258 162.759 17.8602 162.762 17.4402C162.767 16.5536 163.377 16.114 164.59 16.1214C165.15 16.1249 165.522 16.4072 165.705 16.9683C169.661 11.1125 173.675 7.21707 177.747 5.28205C177.84 5.28262 177.91 5.28305 177.957 5.28334C178.05 5.23724 178.121 5.21434 178.167 5.21463C178.447 5.21635 178.796 5.33516 179.215 5.57107C179.634 5.80698 179.842 6.0416 179.841 6.27493C179.84 6.46159 179.769 6.55449 179.629 6.55363L176.389 9.75379C175.028 11.0988 173.595 12.63 172.091 14.3475C170.587 16.0649 169.012 17.9453 167.366 19.9886C168.059 21.2528 168.637 22.0497 169.102 22.3793C169.613 22.6624 170.546 22.8081 171.899 22.8165C175.026 22.8357 178.436 22.1799 182.131 20.8493C185.826 19.5186 188.893 17.8574 191.332 15.8657C193.818 13.8276 195.066 11.9219 195.077 10.1486C195.088 8.32862 193.697 6.89671 190.904 5.85287C188.11 4.76236 184.427 4.20306 179.854 4.17497C167.861 4.1013 158.162 6.60844 150.757 11.6964C150.101 12.0657 149.633 12.2495 149.353 12.2478C148.607 12.2432 148.236 11.8676 148.24 11.1209C148.25 9.48762 149.823 8.02725 152.957 6.73981C156.046 5.40542 159.762 4.3549 164.107 3.58824C166.256 3.22809 168.358 2.961 170.412 2.78695C172.467 2.56623 174.451 2.46175 176.364 2.4735L177.274 2.47909C183.061 2.51463 187.769 3.29024 191.4 4.8059C193.448 5.65849 194.842 6.60041 195.583 7.63164C196.37 8.6165 196.76 9.71558 196.752 10.9289C196.741 12.7489 196.008 14.4477 194.551 16.0255C193.141 17.6035 191.266 19.0153 188.925 20.261C186.631 21.4603 184.128 22.4016 181.418 23.0849C178.707 23.7216 176.092 24.0322 173.572 24.0168C172.172 24.0082 170.865 23.9301 169.653 23.7827C175.151 32.7766 179.277 37.2821 182.03 37.299C182.544 37.3021 182.988 37.1648 183.363 36.8871C183.738 36.6094 183.974 36.1675 184.071 35.5615L184.649 32.625C185.114 32.9545 185.344 33.5159 185.339 34.3092C185.336 34.7759 185.239 35.2886 185.049 35.8475C184.859 36.3597 184.506 36.8708 183.99 37.381C183.144 38.3092 181.998 38.7688 180.551 38.7599C179.105 38.751 176.944 37.2677 174.068 34.31C171.194 31.259 168.324 27.4146 165.459 22.7769C161.687 29.1472 159.791 33.849 159.772 36.8822C159.767 37.6756 160.044 38.2606 160.602 38.6374C160.601 38.7774 160.484 38.8466 160.25 38.8452ZM198.612 38.8008C194.132 38.7733 191.894 38.3862 191.899 37.6396C191.901 37.2196 192.253 37.0117 192.953 37.016L194.073 37.0229C194.259 37.0707 194.446 37.0952 194.632 37.0964C194.866 37.0978 195.099 37.0992 195.332 37.1007C200.045 37.1296 204.437 36.4332 208.505 35.0115C212.668 33.5437 216.086 31.7447 218.759 29.6144C221.479 27.3911 223.617 25.0242 225.172 22.5137C226.775 19.9568 227.583 17.535 227.597 15.2484C227.619 11.6552 226.213 8.7998 223.38 6.68236C221.754 5.45902 220.009 4.60828 218.145 4.13016C216.328 3.65232 214.416 3.40724 212.41 3.39492L211.92 3.39191C208.746 3.37241 204.893 3.90876 200.359 5.00093C195.873 6.09339 190.729 7.69517 184.93 9.80625C183.95 9.80023 183.464 9.0739 183.473 7.62726C183.476 7.1606 183.688 6.83523 184.109 6.65115C184.343 6.55925 184.74 6.42169 185.302 6.23847C185.863 6.00858 186.798 5.71098 188.107 5.34568C192.315 4.1115 196.357 3.20298 200.234 2.62012C204.111 1.99059 207.753 1.68628 211.16 1.70721C216.62 1.74075 221.138 3.07519 224.716 5.71055C228.246 8.29895 229.998 11.7864 229.971 16.173C229.955 18.833 229.169 21.5115 227.612 24.2087C226.102 26.9061 224.01 29.3433 221.337 31.5203C218.663 33.7439 215.339 35.4969 211.365 36.7791C207.389 38.1547 203.138 38.8286 198.612 38.8008ZM190.332 41.97C189.586 41.9655 188.982 41.5184 188.52 40.6289C188.059 39.786 187.833 38.548 187.843 36.9147C187.878 31.1748 191.198 22.5617 197.802 11.0753C197.803 10.8887 198.04 10.4001 198.511 9.60967C199.029 8.8195 199.454 8.12209 199.784 7.51745C200.398 6.35453 200.961 5.77464 201.475 5.7778C201.988 5.78095 202.571 5.92453 203.222 6.20854C203.874 6.44588 204.199 6.70455 204.197 6.98454C203.584 8.00746 202.948 9.03024 202.289 10.0529C201.676 11.0758 201.039 12.0986 200.38 13.1212C193.164 25.4438 189.542 33.8684 189.514 38.395C189.511 38.9549 189.67 39.6326 189.992 40.4279C190.313 41.2232 190.474 41.7142 190.473 41.9009L190.332 41.97Z" fill="#627A94"/>
</g>
<defs>
<filter id="filter0_i_4436_2" x="0.0821075" y="0.412231" width="229.977" height="45.8703" filterUnits="userSpaceOnUse" color-interpolation-filters="sRGB">
<feFlood flood-opacity="0" result="BackgroundImageFix"/>
<feBlend mode="normal" in="SourceGraphic" in2="BackgroundImageFix" result="shape"/>
<feColorMatrix in="SourceAlpha" type="matrix" values="0 0 0 0 0 0 0 0 0 0 0 0 0 0 0 0 0 0 127 0" result="hardAlpha"/>
<feOffset dy="4"/>
<feGaussianBlur stdDeviation="2"/>
<feComposite in2="hardAlpha" operator="arithmetic" k2="-1" k3="1"/>
<feColorMatrix type="matrix" values="0 0 0 0 0.843278 0 0 0 0 0.895833 0 0 0 0 0.238889 0 0 0 0.25 0"/>
<feBlend mode="normal" in2="shape" result="effect1_innerShadow_4436_2"/>
</filter>
</defs>
</svg>
